<?xml version="1.0" standalone="no"?>
<!DOCTYPE svg PUBLIC "-//W3C//DTD SVG 20010904//EN"
 "http://www.w3.org/TR/2001/REC-SVG-20010904/DTD/svg10.dtd">
<svg version="1.0" xmlns="http://www.w3.org/2000/svg"
 width="568.000000pt" height="568.000000pt" viewBox="0 0 568.000000 568.000000"
 preserveAspectRatio="xMidYMid meet">
<metadata>
Created by potrace 1.14, written by Peter Selinger 2001-2017
</metadata>
<g transform="translate(0.000000,568.000000) scale(0.100000,-0.100000)"
fill="#000000" stroke="none">
<path d="M2183 5150 c-65 -15 -148 -65 -217 -130 -39 -37 -96 -80 -125 -96
-30 -16 -87 -60 -125 -97 -70 -67 -71 -68 -116 -62 -78 10 -140 37 -176 77
-19 21 -34 34 -34 30 0 -11 71 -77 98 -92 13 -6 54 -17 90 -24 l67 -12 -54
-55 c-110 -111 -174 -211 -230 -356 -29 -77 -57 -238 -39 -227 4 3 8 22 8 42
0 120 110 353 227 482 28 30 29 25 4 -26 -10 -21 -27 -66 -36 -99 -10 -33 -32
-89 -50 -125 -18 -36 -40 -97 -49 -137 -17 -74 -20 -209 -6 -253 4 -14 5 13 3
60 -7 102 16 230 52 299 l24 46 -2 -96 c-1 -54 -5 -95 -8 -93 -11 7 -19 -68
-20 -196 l-1 -125 -19 40 c-10 22 -19 34 -19 27 0 -7 13 -41 29 -75 15 -34 36
-85 45 -114 9 -28 35 -77 57 -108 38 -54 39 -58 22 -72 -35 -27 -87 -45 -136
-45 -27 1 -47 -2 -44 -5 10 -10 117 -4 139 8 13 6 33 20 45 31 29 27 52 18
102 -45 42 -51 43 -53 37 -110 -8 -81 -32 -158 -61 -197 -28 -39 -32 -48 -10
-30 30 25 55 78 73 160 24 109 20 151 -19 174 -16 9 -29 21 -29 27 0 5 0 11 0
14 0 10 -35 42 -42 38 -10 -5 2 27 15 45 8 10 14 9 28 -4 11 -10 19 -24 20
-33 0 -10 2 -12 6 -3 9 22 23 1 23 -35 0 -20 7 -41 15 -47 16 -12 33 -96 19
-96 -5 0 -8 -17 -6 -38 5 -49 -29 -149 -70 -207 -52 -73 -21 -66 51 13 37 39
71 72 76 72 4 0 1 -7 -6 -17 -13 -15 -12 -15 11 -3 14 7 39 24 56 37 40 30 55
29 85 -3 25 -28 98 -66 111 -58 9 6 24 -22 33 -63 6 -29 3 -34 -27 -53 -21
-12 -51 -20 -83 -21 -44 0 -47 -2 -25 -10 28 -12 72 -6 113 15 30 16 32 14 16
-17 -16 -30 -42 -54 -65 -59 -27 -5 -18 -24 9 -20 24 4 117 61 117 72 0 4 15
11 33 15 23 6 27 9 14 12 -14 3 -17 11 -13 27 3 12 10 45 17 75 l11 53 85 -83
c47 -46 121 -121 166 -167 59 -60 91 -85 120 -93 21 -6 41 -8 44 -5 3 2 -13 9
-35 15 -29 8 -58 30 -109 84 -38 39 -126 126 -197 192 -92 86 -137 136 -162
181 -19 33 -34 68 -34 77 0 9 -13 32 -30 50 -33 38 -38 68 -15 87 12 10 15 10
15 -2 0 -21 43 -58 67 -58 24 0 53 25 53 43 0 7 -5 4 -11 -5 -13 -24 -54 -23
-79 2 -24 24 -25 36 -4 44 11 4 18 -1 21 -14 3 -11 10 -20 15 -20 6 0 8 7 4
15 -4 11 1 15 19 15 13 0 26 4 30 9 6 11 -13 18 -77 26 -36 4 -47 2 -44 -7 1
-7 1 -10 -1 -5 -7 12 -18 8 -41 -13 -11 -11 -24 -16 -27 -10 -8 13 34 50 65
56 42 10 46 12 17 13 -16 1 -26 4 -24 9 3 4 -14 6 -36 4 -45 -3 -87 14 -95 37
-4 11 1 10 19 -2 13 -10 43 -17 66 -17 37 0 45 4 53 25 5 14 14 25 20 25 5 0
10 4 10 10 0 5 -6 7 -14 4 -8 -3 -31 -1 -52 5 -66 18 -108 108 -134 286 -5 39
-10 93 -10 120 0 43 3 52 23 60 12 6 21 16 20 22 -1 6 9 13 23 16 21 4 24 2
18 -17 -14 -41 -24 -91 -25 -126 -2 -30 -3 -28 -9 15 l-7 50 -1 -65 c-2 -79
10 -135 44 -207 48 -101 119 -157 191 -151 34 3 61 28 31 28 -20 0 -73 52 -93
90 -10 19 -19 54 -21 79 -2 25 -6 70 -9 100 l-5 54 31 -61 c17 -36 50 -79 77
-103 40 -35 42 -39 15 -26 -17 9 -43 31 -57 49 -14 18 -26 28 -26 21 0 -6 23
-32 51 -57 29 -26 50 -49 47 -51 -9 -10 -70 38 -89 70 -23 38 -29 43 -29 21 0
-7 24 -38 54 -67 52 -51 56 -53 103 -50 26 1 52 7 57 12 6 5 21 9 35 9 l26 0
-29 23 c-41 33 -21 39 71 22 44 -8 93 -13 111 -11 29 3 72 -16 72 -32 0 -9
-160 -45 -168 -38 -8 9 30 35 53 36 12 1 15 4 7 7 -8 3 -32 -2 -55 -11 -58
-23 -126 -123 -96 -142 4 -2 10 0 14 6 3 5 16 10 27 10 21 0 21 -1 -3 -26 -22
-24 -22 -26 -4 -22 12 2 29 22 42 51 13 26 29 47 37 47 8 0 21 3 30 6 12 5 16
-1 16 -23 0 -17 8 -37 18 -46 20 -19 77 -23 87 -7 3 6 11 10 16 10 6 0 8 -4 5
-9 -3 -5 2 -15 11 -22 15 -12 16 -12 8 6 -10 25 -11 107 -1 123 12 19 34 14
42 -10 4 -14 1 -25 -8 -32 -13 -10 -13 -13 -1 -25 12 -11 15 -10 20 9 7 27 22
8 24 -30 1 -18 4 -13 14 20 10 36 13 39 14 18 2 -42 -25 -156 -53 -227 -24
-61 -25 -63 -5 -45 12 11 32 42 45 69 17 35 22 41 18 21 -6 -33 -25 -74 -73
-158 -18 -32 -29 -58 -23 -58 18 0 63 43 96 91 l33 49 7 -77 6 -77 -56 -73
c-31 -40 -60 -73 -65 -73 -5 0 -9 -4 -9 -10 0 -16 15 -12 42 13 14 13 30 21
36 19 13 -4 101 49 102 61 0 5 14 25 31 45 40 48 76 133 108 257 23 89 29 100
50 103 24 4 24 4 19 -85 -2 -48 -10 -97 -17 -108 -10 -16 -11 -16 -7 -2 3 10
7 52 10 95 2 42 2 64 0 47 -21 -155 -26 -175 -79 -320 l-7 -20 14 20 c8 11 23
41 33 68 10 26 21 47 26 47 4 0 13 17 20 38 l13 37 7 -35 c4 -20 7 22 8 97 l1
132 27 3 c28 3 45 28 19 28 -21 0 -21 5 11 78 18 41 33 62 44 62 10 0 24 3 33
6 21 8 21 -24 0 -47 -16 -18 -13 -49 5 -49 5 0 11 9 14 21 3 12 12 19 19 17
18 -6 22 -45 6 -51 -7 -2 -1 -2 15 0 22 4 27 1 27 -15 0 -43 -62 -80 -97 -59
-8 5 -13 3 -13 -7 0 -17 9 -20 49 -16 24 2 24 1 8 -24 -21 -32 -11 -34 21 -3
l24 22 -7 -25 c-13 -46 -78 -195 -98 -225 -11 -16 -38 -49 -60 -72 -23 -24
-38 -46 -34 -50 13 -12 61 32 106 98 35 51 42 58 37 34 -16 -73 -17 -92 -6
-132 7 -23 23 -52 36 -64 33 -31 30 -57 -13 -101 -20 -21 -34 -40 -30 -44 9
-9 56 32 112 100 l50 60 6 -71 c5 -73 27 -123 54 -123 49 0 -47 -118 -190
-233 -146 -118 -140 -115 -162 -70 -10 21 -52 66 -93 102 -41 35 -90 77 -108
93 l-33 29 44 52 c48 58 91 117 84 117 -12 0 -147 -172 -142 -180 3 -6 1 -18
-5 -27 -10 -16 -11 -15 -7 5 3 12 1 22 -4 22 -5 0 -9 -4 -9 -8 0 -13 -87 -73
-118 -82 -21 -6 -22 -8 -7 -9 19 -1 47 14 103 55 21 16 22 16 22 -13 0 -33
-27 -63 -58 -66 -23 -1 -19 -17 4 -17 25 0 15 -16 -31 -49 -47 -34 -71 -70
-77 -114 -2 -14 -7 -29 -11 -33 -4 -4 -3 -12 2 -18 5 -6 11 -59 14 -117 l5
-105 -52 -18 c-28 -10 -59 -25 -68 -33 -15 -14 -24 -9 -93 48 -42 35 -87 71
-99 79 -13 8 -43 32 -67 52 -24 21 -72 59 -106 85 -35 26 -63 53 -63 60 0 7
-3 12 -8 11 -8 -3 -72 41 -181 128 -41 32 -71 53 -67 46 4 -6 35 -33 69 -59
34 -26 64 -50 67 -53 3 -3 50 -42 105 -86 55 -44 170 -136 255 -204 85 -68
157 -125 160 -127 2 -2 -1 -12 -8 -21 -7 -9 -24 -41 -38 -69 -14 -29 -28 -53
-30 -53 -3 0 -17 8 -32 18 l-27 17 23 -32 c12 -17 22 -37 23 -45 0 -7 4 -4 9
7 5 11 9 14 9 7 1 -17 21 -5 21 12 0 18 30 89 35 84 2 -2 -3 -30 -11 -62 -8
-32 -13 -65 -10 -72 7 -17 -16 -18 -32 -2 -9 9 -12 9 -12 0 0 -6 9 -16 20 -22
27 -14 25 -46 -2 -61 -13 -7 -23 -11 -23 -10 0 1 -8 -1 -18 -5 -23 -8 -31 0
-22 23 9 23 12 103 4 103 -4 0 -10 -32 -14 -70 -5 -54 -11 -73 -26 -81 -10 -5
-19 -6 -19 -2 0 4 -4 2 -9 -5 -4 -7 -14 -15 -22 -16 -56 -11 -93 -43 -79 -66
6 -8 10 -28 11 -45 1 -29 1 -29 8 -5 l8 25 13 -27 c15 -32 44 -33 74 -3 l21
20 3 -23 c2 -15 -14 -50 -47 -99 -54 -79 -59 -93 -38 -93 8 0 28 -7 45 -16 32
-15 32 -17 33 -92 l2 -77 7 88 c6 75 11 93 37 130 27 37 50 71 96 141 42 64
45 55 11 -39 -37 -104 -43 -117 -45 -94 -1 8 -5 -2 -9 -21 -4 -19 -15 -62 -24
-95 -9 -32 -16 -83 -16 -112 0 -29 -3 -52 -7 -51 -5 1 -17 -3 -28 -9 -11 -6
-24 -12 -30 -13 -21 -5 -55 -39 -53 -52 2 -7 -2 -12 -9 -11 -7 2 -31 -22 -55
-52 -23 -30 -46 -55 -50 -55 -5 0 -9 26 -10 58 l-2 57 -3 -55 c-4 -77 -11
-100 -28 -100 -8 0 -15 -7 -15 -15 0 -9 -8 -19 -17 -22 -10 -4 -43 -30 -73
-60 -30 -29 -61 -53 -67 -53 -7 0 -13 -4 -13 -10 0 -5 -9 -10 -19 -10 -10 0
-22 -7 -25 -16 -3 -8 -10 -13 -15 -9 -6 3 -75 104 -155 224 l-145 219 106 314
c58 172 107 315 109 317 2 2 21 7 41 11 l38 8 -35 1 c-19 0 -40 -3 -46 -7 -6
-4 -37 -83 -68 -177 -30 -93 -83 -251 -116 -350 -59 -178 -71 -218 -45 -161
l13 30 61 -93 c33 -52 58 -98 54 -104 -3 -6 -2 -7 4 -4 10 6 38 -40 34 -56 -1
-5 3 -6 8 -3 5 3 24 -18 41 -47 18 -28 46 -71 63 -95 l29 -44 -17 -38 c-22
-50 -48 -74 -108 -99 -40 -17 -47 -24 -42 -43 27 -125 36 -210 30 -287 -6 -75
-5 -83 9 -78 11 4 16 1 16 -10 0 -31 7 -8 13 42 6 48 6 49 -5 15 -11 -32 -13
-25 -19 80 -4 63 -12 135 -18 160 -19 82 -16 95 32 115 23 10 62 39 86 64 24
25 38 38 31 28 -25 -34 -3 -27 24 7 27 36 20 59 -12 34 -16 -12 -16 -11 -2 6
8 11 30 25 47 33 32 13 150 120 257 231 53 56 139 103 190 106 28 1 29 -1 49
-84 11 -47 19 -94 19 -105 0 -11 -16 -63 -35 -115 -32 -89 -55 -180 -44 -180
7 0 57 147 57 169 0 12 5 21 10 21 6 0 10 -4 10 -8 0 -4 15 -25 34 -45 l34
-38 -1 -128 c-1 -71 1 -127 4 -125 4 2 12 -48 20 -112 12 -108 11 -118 -6
-150 -16 -29 -17 -40 -6 -74 6 -21 10 -50 8 -62 -2 -13 -2 -17 0 -11 3 9 19 5
56 -13 29 -15 55 -32 59 -38 4 -6 8 -7 8 -2 0 5 8 2 18 -6 9 -8 25 -18 35 -21
18 -7 24 -27 7 -27 -5 0 -10 -8 -10 -18 0 -10 -11 -29 -26 -42 -21 -21 -27
-22 -34 -10 -7 11 -10 12 -10 2 0 -11 -94 -112 -104 -112 -10 0 -246 369 -247
385 0 17 -2 16 -10 -4 -6 -14 -6 -27 -1 -30 20 -13 253 -372 247 -381 -8 -13
178 -11 186 2 4 6 15 6 29 -2 35 -19 36 -3 1 18 -28 17 -30 20 -14 26 10 4 22
2 28 -6 27 -36 60 -48 130 -47 52 0 65 3 50 10 -17 8 -16 9 8 6 40 -6 33 6
-19 32 -78 39 -42 33 52 -9 49 -22 100 -40 114 -40 16 1 1 10 -45 29 -84 34
-195 90 -178 91 6 0 49 -16 95 -36 141 -61 213 -84 262 -84 25 0 46 5 46 10 0
6 62 41 138 79 180 90 200 101 182 101 -8 0 -44 -16 -79 -35 -36 -19 -66 -33
-69 -31 -2 3 7 20 21 38 13 18 43 65 65 104 23 39 48 77 58 84 9 8 67 27 130
42 134 33 244 87 351 174 23 19 75 52 115 73 95 49 135 72 165 95 39 30 18 31
-32 2 -25 -15 -49 -25 -54 -22 -5 3 -11 33 -15 65 -6 53 -3 70 24 137 17 42
37 113 45 158 7 44 20 108 28 141 15 60 54 561 45 570 -3 3 -12 -106 -22 -242
-9 -137 -24 -277 -33 -313 -8 -36 -21 -99 -29 -140 -12 -69 -23 -107 -53 -184
l-11 -28 -128 128 c-70 71 -167 171 -215 222 -103 108 -104 100 -2 -13 39 -42
69 -83 69 -91 -1 -8 4 -14 11 -14 6 0 25 -12 40 -26 23 -21 25 -28 14 -35 -10
-6 -7 -9 12 -9 22 0 69 -35 69 -52 0 -4 -25 -14 -56 -23 -75 -22 -65 -28 14
-8 57 14 85 13 69 -3 -3 -4 -30 -15 -59 -25 -31 -11 -40 -17 -23 -15 17 3 39
8 50 12 20 7 20 7 0 -15 -10 -12 -56 -40 -100 -62 -83 -41 -160 -58 -271 -59
-44 0 -54 4 -81 32 -43 47 -113 143 -113 156 0 6 -14 27 -30 46 -31 35 -63
100 -54 109 7 7 12 63 18 202 7 181 50 569 82 747 9 50 23 94 33 105 10 10 78
70 152 133 73 63 169 146 212 184 81 70 218 166 239 166 29 0 157 -84 236
-155 35 -31 116 -145 108 -152 -2 -3 -15 1 -27 8 -29 15 -90 29 -84 19 2 -4
18 -10 35 -13 16 -4 46 -17 67 -30 33 -21 52 -51 145 -238 99 -200 159 -327
238 -509 18 -41 52 -116 75 -166 59 -126 111 -258 129 -325 20 -78 41 -116 92
-170 25 -25 49 -59 54 -75 10 -29 10 -29 5 5 -3 22 -21 51 -51 83 -45 49 -76
106 -88 164 -7 30 -6 31 26 27 l33 -4 -25 20 c-14 11 -31 21 -37 21 -13 0 -43
50 -43 71 0 7 -16 45 -35 86 -36 77 -41 93 -26 93 5 0 11 11 13 25 6 29 -14
29 -23 0 -6 -22 -2 -30 -80 140 -20 44 -47 103 -60 130 -17 37 -23 67 -22 113
1 67 -2 75 -11 28 -3 -16 -7 -30 -9 -32 -2 -2 -16 24 -32 59 -53 119 -196 399
-230 453 -19 30 -41 69 -48 86 -16 37 -60 85 -157 167 -57 48 -65 60 -65 89 0
33 -6 39 -115 114 -63 43 -142 97 -175 118 -33 22 -74 53 -92 69 -17 17 -49
34 -70 40 -27 7 -44 20 -57 43 -11 18 -39 58 -63 90 -44 55 -44 56 -29 87 9
16 16 38 16 48 0 12 -5 8 -16 -12 -24 -47 -28 -47 -70 -12 -21 18 -47 36 -56
40 -28 10 -21 42 20 104 l37 56 0 126 c0 82 -4 133 -12 146 -11 17 -12 15 -5
-15 9 -46 9 -207 0 -242 -5 -14 -24 -48 -44 -73 -31 -42 -35 -52 -30 -89 5
-34 4 -37 -4 -16 -6 13 -10 47 -8 75 3 46 5 50 30 53 20 2 29 11 37 35 20 63
22 141 6 207 -9 36 -20 117 -25 180 -8 111 -26 181 -58 225 l-14 20 7 -20 c23
-59 44 -157 43 -205 l0 -55 -9 58 c-10 68 -53 228 -68 254 -13 22 -6 -24 16
-107 8 -30 16 -111 18 -180 l3 -125 -8 105 c-8 110 -18 165 -28 155 -4 -3 -5
-23 -4 -43 2 -33 1 -35 -10 -17 -15 24 -13 18 -34 130 -18 100 -30 131 -17 45
16 -112 8 -318 -16 -418 -13 -51 -25 -92 -27 -89 -2 2 5 57 16 121 20 120 28
356 11 356 -4 0 -11 30 -14 68 -12 131 -66 246 -134 284 -39 21 -45 14 -33
-38 12 -50 13 -145 1 -124 -5 8 -11 40 -14 70 -10 102 -71 227 -111 227 -20 0
-21 2 14 -67 21 -42 26 -61 18 -66 -17 -11 -68 55 -68 88 0 15 -4 30 -10 33
-6 3 -7 -1 -4 -12 4 -14 3 -14 -7 2 -34 58 -199 201 -199 173 0 -7 -5 -6 -15
2 -9 7 -18 10 -22 7 -3 -4 17 -30 46 -59 28 -29 51 -60 51 -68 -1 -16 -3 -13
-62 63 -15 19 -42 46 -60 58 l-33 24 18 -25 c9 -14 23 -36 30 -50 6 -14 27
-45 45 -69 32 -42 87 -141 78 -141 -2 0 -20 28 -40 63 -40 68 -101 145 -109
137 -3 -3 13 -41 34 -84 65 -134 79 -188 78 -295 0 -53 -4 -116 -8 -141 -7
-39 -9 -32 -11 50 -1 64 -5 87 -10 70 -4 -14 -8 -18 -9 -10 -16 239 -120 468
-243 535 -48 27 -52 16 -9 -26 23 -23 49 -55 57 -73 15 -28 11 -27 -37 19 -29
28 -56 53 -59 56 -20 24 -89 48 -133 45 -43 -3 -47 -2 -42 15 8 24 -3 24 -35
-1 -27 -21 -51 -27 -33 -9 13 13 0 30 -46 62 l-26 19 25 -7 c14 -4 32 -13 40
-20 8 -6 34 -13 57 -14 33 -1 44 3 53 18 9 17 6 24 -20 43 l-31 22 27 14 c24
13 25 15 10 30 -9 9 -33 22 -54 29 -36 11 -35 12 31 11 58 -1 67 -4 61 -17
-14 -34 -16 -52 -9 -78 6 -26 7 -25 43 33 20 33 42 69 48 80 5 10 32 30 60 44
41 21 63 25 134 25 47 0 110 -4 140 -7 72 -9 176 -42 173 -56 -1 -6 7 -8 20
-4 19 5 14 9 -32 30 -48 22 -73 30 -141 46 -8 2 -46 7 -85 11 -38 4 -73 9 -77
11 -22 14 -212 -54 -235 -84 -12 -16 -14 -16 -23 0 -25 41 -67 82 -98 95 -47
20 -50 11 -3 -10 38 -17 78 -53 70 -62 -3 -2 -23 0 -45 6 -76 21 -224 -8 -308
-61 -47 -30 -126 -55 -126 -40 0 13 96 96 143 123 55 32 151 60 188 55 16 -3
29 -1 29 4 0 10 -63 9 -107 -2z m195 -95 c29 -9 52 -20 52 -26 0 -6 -4 -8 -10
-4 -5 3 -70 6 -144 7 -75 1 -134 4 -132 6 8 8 112 30 147 31 19 1 59 -6 87
-14z m-183 -44 c-12 -10 -96 -31 -122 -30 -24 0 19 18 72 29 57 11 60 11 50 1z
m88 -8 c-7 -2 -19 -2 -25 0 -7 3 -2 5 12 5 14 0 19 -2 13 -5z m-253 -38 c0 -2
-10 -9 -22 -15 -22 -11 -22 -10 -4 4 21 17 26 19 26 11z m323 -2 c-7 -2 -19
-2 -25 0 -7 3 -2 5 12 5 14 0 19 -2 13 -5z m-419 -34 c-36 -38 -91 -79 -79
-58 4 7 -3 2 -18 -13 -14 -16 -32 -28 -40 -28 -7 0 -34 -13 -60 -30 -26 -16
-51 -30 -54 -30 -4 0 13 20 37 46 50 50 128 104 152 104 9 0 21 6 28 14 6 8
21 17 33 19 12 2 24 5 26 6 3 0 -8 -13 -25 -30z m327 -108 c21 -3 14 -34 -11
-60 -17 -16 -30 -26 -30 -22 0 4 11 18 25 31 13 12 22 27 19 31 -3 5 -29 10
-57 10 -47 2 -49 2 -17 8 19 4 42 6 50 5 8 -1 18 -3 21 -3z m-429 -23 c-7 -7
-12 -8 -12 -2 0 14 12 26 19 19 2 -3 -1 -11 -7 -17z m-76 -13 c-11 -8 -25 -15
-30 -15 -6 1 0 7 14 15 32 19 40 18 16 0z m834 -132 c36 -37 81 -88 99 -113
l33 -45 -33 35 c-94 103 -179 189 -214 218 l-40 33 45 -29 c25 -17 74 -61 110
-99z m-918 45 c-22 -30 -51 -76 -65 -103 -14 -28 -38 -63 -52 -80 -25 -29 -26
-29 -19 -5 11 40 61 148 85 181 21 30 79 72 87 64 2 -2 -14 -28 -36 -57z m68
37 c-7 -8 -23 -34 -35 -57 -13 -24 -38 -54 -56 -68 l-33 -25 26 44 c33 56 98
134 105 127 3 -3 0 -12 -7 -21z m849 -279 c1 -41 -7 -28 -19 30 -20 96 -20
108 -1 54 11 -30 20 -68 20 -84z m-999 24 c-6 -11 -13 -20 -16 -20 -2 0 0 9 6
20 6 11 13 20 16 20 2 0 0 -9 -6 -20z m-28 -7 c-33 -73 -43 -93 -48 -93 -11 0
5 59 22 85 19 28 37 34 26 8z m1413 -164 c21 -55 35 -102 32 -106 -4 -3 -9 0
-11 8 -28 86 -52 151 -69 184 -14 29 -16 36 -5 27 9 -7 33 -58 53 -113z m-395
-89 c-6 -36 -16 -72 -21 -80 -8 -11 -9 -9 -4 10 4 14 12 79 19 145 10 111 11
115 14 55 2 -36 -1 -94 -8 -130z m-1063 128 c-3 -8 -6 -5 -6 6 -1 11 2 17 5
13 3 -3 4 -12 1 -19z m-3 -97 c-4 -17 -9 -30 -11 -27 -3 2 -2 19 2 36 9 41 17
33 9 -9z m901 -189 c-8 -8 -56 80 -61 111 -3 24 4 15 30 -38 19 -38 33 -71 31
-73z m-46 33 l23 -40 -26 28 c-14 15 -26 35 -26 44 0 19 0 19 29 -32z m156 5
c-15 -41 -34 -80 -35 -69 0 4 6 22 14 40 7 19 16 42 19 52 4 9 9 17 11 17 3 0
-1 -18 -9 -40z m735 15 c0 -8 -4 -15 -10 -15 -5 0 -10 7 -10 15 0 8 5 15 10
15 6 0 10 -7 10 -15z m-686 -82 c5 -14 3 -23 -3 -23 -16 0 -33 39 -26 58 5 15
7 15 14 2 5 -8 12 -25 15 -37z m690 24 c14 -57 18 -137 7 -137 -6 0 -12 8 -13
18 0 9 -3 28 -4 42 -11 79 -12 100 -4 100 4 0 10 -10 14 -23z m-44 -27 c0 -5
-4 -10 -10 -10 -5 0 -10 5 -10 10 0 6 5 10 10 10 6 0 10 -4 10 -10z m-940 -48
c-6 -2 -18 4 -25 14 -24 31 -17 39 11 13 14 -13 20 -25 14 -27z m-736 -151
c15 -28 26 -53 27 -56 0 -2 11 -28 24 -57 27 -58 33 -102 13 -96 -18 6 -76 93
-87 131 -5 18 -12 41 -17 51 -6 15 -4 17 7 11 8 -5 5 2 -6 14 -16 19 -20 40
-23 110 l-2 86 19 -71 c11 -40 31 -95 45 -123z m1666 164 c17 -20 4 -35 -31
-35 -30 0 -38 17 -17 38 16 16 33 15 48 -3z m-615 -25 c3 -5 1 -10 -4 -10 -6
0 -11 5 -11 10 0 6 2 10 4 10 3 0 8 -4 11 -10z m45 -53 c0 -5 -4 -5 -10 -2 -5
3 -10 14 -10 23 0 15 2 15 10 2 5 -8 10 -19 10 -23z m610 0 c0 -5 -4 -5 -10
-2 -5 3 -10 14 -10 23 0 15 2 15 10 2 5 -8 10 -19 10 -23z m-140 -7 c0 -22
-41 -90 -50 -85 -15 9 -12 24 11 61 20 33 39 44 39 24z m180 -22 c0 -19 -2
-20 -10 -8 -13 19 -13 30 0 30 6 0 10 -10 10 -22z m-1037 5 c-7 -2 -19 -2 -25
0 -7 3 -2 5 12 5 14 0 19 -2 13 -5z m1022 -51 c-8 -8 -25 17 -25 38 0 9 6 6
16 -8 9 -13 13 -26 9 -30z m160 -132 c-12 -49 -13 -50 -9 -12 3 23 7 50 9 60
2 9 5 42 6 72 l3 55 3 -60 c2 -33 -4 -85 -12 -115z m-960 140 c-3 -5 -12 -10
-18 -10 -7 0 -6 4 3 10 19 12 23 12 15 0z m123 -33 c4 -32 -21 -67 -48 -67
-23 0 -63 45 -58 67 2 10 15 21 33 24 53 12 70 6 73 -24z m-212 11 c-3 -7 -9
-21 -12 -30 -4 -10 -13 -18 -20 -18 -18 0 -18 10 2 38 16 23 40 31 30 10z
m591 -20 c-3 -7 -5 -2 -5 12 0 14 2 19 5 13 2 -7 2 -19 0 -25z m-1061 -36 c-8
-7 -25 8 -37 31 -11 21 -10 21 15 -2 14 -14 24 -26 22 -29z m265 20 c-7 -2
-18 1 -23 6 -8 8 -4 9 13 5 13 -4 18 -8 10 -11z m839 -16 c0 -8 -7 -16 -15
-20 -15 -5 -21 14 -8 27 11 12 23 8 23 -7z m-1374 -38 c24 -46 11 -43 -16 4
-13 22 -18 38 -11 34 6 -4 18 -21 27 -38z m350 -3 c19 -14 19 -14 -2 -15 -12
0 -27 7 -34 15 -17 20 9 21 36 0z m44 -5 c0 -5 -2 -10 -4 -10 -3 0 -8 5 -11
10 -3 6 -1 10 4 10 6 0 11 -4 11 -10z m-82 -49 c14 -7 36 -9 54 -6 l31 7 -33
-29 c-37 -33 -41 -32 -97 26 -31 33 -32 63 0 34 12 -11 32 -26 45 -32z m952
-71 c-9 -88 -15 -112 -45 -166 -20 -35 -40 -66 -45 -69 -16 -10 -11 22 5 35 9
7 14 19 11 26 -2 6 9 51 25 100 16 48 29 92 29 98 0 20 21 88 26 83 3 -3 0
-51 -6 -107z m-1271 57 c0 -21 -1 -21 -9 -2 -12 28 -12 37 0 30 6 -3 10 -16 9
-28z m68 1 c33 -31 28 -43 -7 -18 -16 12 -30 26 -30 31 0 15 12 11 37 -13z
m1859 -65 c-4 -49 -12 -92 -18 -98 -7 -7 -9 4 -4 39 3 27 6 71 6 97 0 30 4 49
11 49 8 0 10 -25 5 -87z m-156 0 c-11 -17 -11 -17 -6 0 3 10 7 26 7 35 1 15 2
15 6 0 2 -10 -1 -25 -7 -35z m-1651 -43 c0 -23 -1 -23 -9 -5 -5 11 -9 29 -9
40 -1 17 1 17 9 5 5 -8 9 -26 9 -40z m986 -19 c-26 -42 -40 -54 -27 -23 25 58
47 93 50 79 2 -8 -8 -34 -23 -56z m-823 -82 c-11 -29 -19 -16 -26 46 l-7 50
21 -37 c14 -26 17 -43 12 -59z m-57 -39 c7 -22 6 -23 -9 -11 -9 7 -16 23 -16
34 0 26 15 12 25 -23z m85 -7 c-15 -32 -25 -16 -15 24 4 19 9 23 17 15 9 -9 8
-19 -2 -39z m1328 -2 c2 -12 0 -30 -3 -39 -6 -15 -8 -15 -15 3 -5 11 -9 31 -9
43 -1 30 23 24 27 -7z m-1212 -23 c17 -2 19 -10 17 -62 -1 -34 -2 -62 -2 -64
-2 -7 -58 28 -74 46 -18 19 -17 20 12 30 42 15 39 24 -4 16 -40 -7 -41 -5 -19
37 14 29 17 30 34 14 10 -9 26 -17 36 -17z m31 16 c-3 -3 -12 -4 -19 -1 -8 3
-5 6 6 6 11 1 17 -2 13 -5z m-228 -21 c20 -16 20 -20 8 -38 -13 -16 -17 -17
-31 -6 -17 14 -22 61 -7 61 5 0 18 -8 30 -17z m1374 -36 c-7 -12 -23 3 -23 22
0 28 14 35 21 9 3 -13 4 -26 2 -31z m-1128 1 c1 -18 5 -45 9 -60 5 -17 4 -28
-2 -28 -10 0 -22 55 -22 104 0 39 13 25 15 -16z m1259 -9 c-24 -27 -30 -15 -9
18 12 17 20 23 23 15 2 -7 -4 -22 -14 -33z m-574 14 c0 -10 -52 -63 -63 -63
-5 0 4 15 20 34 27 33 43 44 43 29z m-956 -54 c-28 -31 -45 -25 -33 11 9 26
14 28 31 19 19 -10 19 -11 2 -30z m1496 31 c0 -5 -5 -10 -11 -10 -5 0 -7 5 -4
10 3 6 8 10 11 10 2 0 4 -4 4 -10z m-63 -46 c-10 -10 -37 16 -37 34 0 13 4 12
22 -5 12 -13 19 -25 15 -29z m-1217 -41 c3 -3 -11 2 -30 12 -40 20 -70 44 -70
56 0 7 80 -48 100 -68z m1547 25 c39 -37 41 -48 11 -48 -12 0 -18 3 -15 7 4 3
-2 12 -12 19 -18 13 -36 54 -23 54 3 0 21 -14 39 -32z m-158 -106 c12 -21 13
-11 2 46 -5 23 -7 42 -6 42 7 0 65 -59 65 -67 0 -4 -11 -21 -24 -38 -23 -28
-26 -29 -41 -14 -17 17 -34 110 -26 144 3 11 8 -6 13 -38 4 -32 12 -65 17 -75z
m-1249 74 c0 -44 -17 -106 -29 -106 -3 0 -2 34 3 75 11 82 26 101 26 31z
m1513 -92 c20 -27 55 -78 77 -114 l39 -64 -28 -51 c-39 -69 -71 -119 -103
-162 -16 -19 -28 -42 -28 -49 0 -7 -39 -46 -86 -85 -144 -122 -184 -176 -305
-424 -151 -308 -268 -580 -255 -592 2 -3 14 22 26 54 12 32 30 72 40 88 9 17
39 80 66 140 27 61 58 124 69 140 11 17 31 54 45 83 14 28 31 51 37 52 7 0 20
14 28 31 9 16 22 28 28 26 7 -2 44 27 82 66 39 38 124 121 190 185 66 64 107
105 90 92 -16 -14 -32 -27 -35 -30 -40 -40 -152 -131 -155 -128 -5 5 44 53
125 123 19 17 42 40 50 50 13 17 -26 -15 -160 -131 -14 -12 -39 -34 -56 -50
-17 -16 -42 -38 -55 -49 l-24 -20 14 20 c8 11 55 60 105 109 71 69 78 78 31
40 -34 -29 -56 -41 -52 -31 5 13 3 16 -6 11 -28 -16 -45 -37 -41 -49 3 -7 1
-16 -5 -20 -7 -4 -8 1 -4 12 6 16 4 16 -17 -2 l-23 -20 24 43 c24 43 80 101
198 202 91 79 158 140 221 200 65 63 44 48 -60 -40 -41 -36 -84 -71 -95 -80
-19 -14 -19 -13 1 10 11 14 35 49 53 79 18 30 39 61 47 68 14 14 18 29 14 48
-1 5 6 15 16 22 15 11 16 16 4 38 -18 33 -12 36 30 16 26 -12 39 -27 50 -59
16 -46 27 -53 32 -22 3 17 14 10 73 -45 39 -35 79 -66 91 -69 12 -3 51 -25 87
-48 59 -38 67 -47 66 -73 -1 -21 -3 -24 -6 -10 -6 24 -32 55 -47 55 -16 0
-103 -49 -170 -95 -66 -46 -176 -136 -288 -237 -42 -38 -95 -83 -118 -99 -22
-16 -40 -36 -40 -44 0 -9 -9 -28 -21 -44 -11 -15 -22 -39 -23 -52 -2 -13 -10
-58 -19 -99 -16 -75 -19 -97 -32 -200 -4 -30 -9 -64 -11 -75 -3 -11 -13 -141
-24 -290 -11 -148 -24 -296 -28 -327 -5 -39 -4 -62 4 -73 6 -8 10 -30 9 -48
-2 -18 2 -38 7 -45 6 -6 7 -12 3 -12 -4 0 -1 -7 6 -16 14 -18 -10 -6 -116 56
-27 16 -59 34 -70 40 -11 6 -35 19 -54 31 -18 11 -36 18 -38 15 -6 -5 38 -33
159 -102 49 -27 88 -52 88 -55 0 -4 -7 -10 -16 -13 -8 -3 -12 -2 -9 4 3 5 -3
14 -14 19 -26 15 -38 14 -23 -1 21 -21 13 -27 -15 -12 -16 7 -33 14 -38 14 -6
0 -21 10 -35 23 -35 32 -110 61 -95 37 18 -29 -20 -3 -76 52 -35 36 -48 45
-28 22 45 -54 104 -105 113 -97 3 3 6 -1 6 -11 0 -18 -11 -15 -42 11 -11 10
-22 12 -32 6 -14 -8 -11 -14 19 -43 41 -40 48 -65 8 -29 -25 22 -25 21 4 -16
35 -46 214 -220 256 -250 15 -11 27 -25 27 -32 0 -7 3 -12 8 -11 4 2 9 -1 11
-7 7 -16 29 -35 40 -35 6 0 10 -5 9 -11 -2 -6 5 -13 15 -14 21 -4 36 -16 119
-94 52 -49 62 -63 44 -63 -3 0 -27 -6 -52 -14 -62 -19 -98 -18 -115 3 -13 15
-11 16 14 11 22 -4 25 -3 16 8 -6 8 -21 11 -33 8 -25 -6 -62 26 -38 33 6 3 9
10 5 16 -3 7 3 4 14 -6 18 -15 21 -16 26 -3 4 10 1 13 -9 9 -13 -5 -19 8 -15
30 1 5 -3 6 -8 3 -5 -3 -14 1 -21 9 -10 12 -10 15 0 15 10 0 -304 316 -327
329 -5 3 -25 27 -47 53 -21 27 -41 46 -44 43 -3 -3 7 -18 21 -33 29 -30 34
-43 15 -40 -7 2 -25 20 -40 41 -26 35 -48 52 -32 25 59 -98 219 -290 399 -476
66 -68 121 -127 122 -130 2 -4 -2 -14 -7 -22 -7 -12 -30 7 -115 95 -58 60
-105 105 -105 100 0 -5 46 -55 101 -111 111 -111 132 -160 30 -67 -71 64 -293
319 -341 391 -31 47 -38 68 -19 56 15 -9 2 14 -55 101 -25 39 -46 65 -46 59 0
-5 21 -41 46 -78 25 -38 43 -70 41 -73 -3 -2 -13 8 -24 22 -39 57 -76 95 -92
95 -11 0 -12 3 -4 8 13 8 2 35 -13 31 -5 -1 -31 40 -57 92 -26 52 -45 85 -41
74 8 -24 8 -33 -2 -64 -4 -14 -3 -22 2 -19 5 4 9 -4 9 -16 0 -17 -6 -22 -24
-22 -20 0 -21 2 -8 10 14 9 14 11 -1 23 -15 11 -15 14 -2 24 13 9 13 10 -1 6
-21 -7 -43 8 -35 22 4 6 12 8 18 5 7 -4 8 -2 4 5 -6 9 -11 9 -21 1 -9 -8 -14
-6 -19 6 -3 9 -3 21 1 26 3 6 1 8 -4 5 -6 -4 -16 6 -22 23 -12 34 -22 41 -13
8 3 -14 2 -19 -6 -14 -7 4 -12 5 -12 1 0 -7 61 -163 94 -240 l26 -60 -24 29
c-17 21 -25 25 -30 15 -3 -8 -3 -3 0 10 4 15 2 21 -5 17 -6 -4 -14 7 -20 26
-8 29 -9 30 -10 8 -2 -25 -2 -25 -17 -5 -8 11 -19 19 -24 18 -5 -2 -7 3 -4 11
8 21 -35 126 -50 120 -7 -3 -18 7 -24 21 -7 14 -17 23 -22 20 -6 -3 -7 1 -4
10 4 8 -2 27 -12 43 -10 15 -18 30 -17 33 1 4 -6 5 -17 2 -15 -4 -18 -1 -15
15 2 15 -1 19 -11 15 -8 -3 -14 1 -14 8 0 20 -56 130 -63 123 -3 -3 -3 4 0 17
4 14 2 20 -4 16 -6 -4 -13 2 -16 13 -3 11 -1 18 4 14 5 -3 9 -1 9 5 0 5 -4 12
-9 15 -5 3 -12 21 -15 40 -6 32 16 111 59 211 7 17 31 77 53 135 41 108 39
105 115 142 23 11 22 5 -13 -80 -28 -68 -31 -92 -12 -92 4 0 21 43 36 95 29
97 52 128 100 137 27 4 41 -52 27 -108 -15 -57 -14 -61 8 -67 11 -2 21 -15 24
-28 2 -14 3 -11 2 6 -3 28 1 31 44 45 l46 16 2 69 c5 117 10 134 44 143 28 7
36 19 85 132 48 113 53 132 54 200 1 62 3 72 13 56 44 -69 129 -176 161 -200
56 -42 54 -25 -4 30 -29 27 -79 90 -112 139 -71 107 -85 123 -119 141 -23 11
-29 11 -39 0 -9 -12 -7 -13 8 -9 24 6 38 -13 22 -32 -9 -10 -18 -11 -41 -3
-25 8 -28 14 -23 36 9 36 21 49 59 67 47 23 283 203 331 253 23 23 72 89 109
146 l68 104 33 -10 c23 -6 42 -5 66 6 18 8 38 13 43 12 6 -1 27 -25 48 -52z
m-834 -167 c8 -10 7 -17 -1 -25 -19 -19 -28 -14 -28 13 0 27 12 32 29 12z m31
-41 c0 -19 -17 -29 -37 -22 -12 5 -13 9 -3 21 16 19 40 19 40 1z m-55 -36 c3
-5 -1 -10 -9 -10 -9 0 -16 5 -16 10 0 6 4 10 9 10 6 0 13 -4 16 -10z m-3 -30
c10 0 18 -2 18 -4 0 -9 -37 -83 -54 -108 -10 -15 -14 -33 -10 -39 4 -7 3 -9
-3 -6 -10 6 -33 -90 -33 -138 0 -45 -24 -97 -53 -111 -49 -26 -54 -17 -62 118
-5 94 -4 131 6 155 17 39 150 154 164 142 5 -5 17 -9 27 -9z m208 -74 c0 -6 3
-21 6 -33 5 -18 -2 -26 -44 -50 -29 -16 -57 -41 -68 -60 -25 -48 -27 -35 -4
32 11 32 20 70 19 84 -1 19 -4 14 -13 -19 -32 -113 -127 -247 -178 -250 -10 0
22 112 43 148 10 19 54 78 96 131 l77 98 33 -35 c18 -19 33 -40 33 -46z m-130
-246 c-30 -24 -20 -26 21 -4 17 8 33 14 35 12 12 -12 -72 -69 -141 -96 -44
-17 -134 -56 -199 -86 -66 -30 -124 -52 -129 -49 -11 7 30 51 57 59 12 4 53
22 93 40 39 19 78 34 86 34 8 0 17 7 21 15 3 8 10 15 16 15 6 0 8 -6 5 -12 -4
-7 3 -2 14 12 18 21 22 23 31 10 9 -14 11 -13 14 10 1 11 75 59 91 59 6 1 -1
-8 -15 -19z m90 -19 c0 -5 -7 -12 -16 -15 -14 -5 -15 -4 -4 9 14 17 20 19 20
6z m-71 -58 c-8 -9 -31 -29 -53 -44 l-38 -29 -4 -117 c-3 -105 -6 -120 -25
-135 -16 -13 -20 -27 -17 -54 2 -25 -2 -39 -11 -42 -12 -4 -13 11 -8 94 4 55
7 134 7 177 0 71 2 80 26 102 15 14 30 22 34 20 5 -3 10 -2 12 3 2 6 63 35 87
41 2 1 -3 -7 -10 -16z m81 -18 c-29 -31 -15 -33 17 -3 13 12 23 16 23 10 0 -7
-17 -22 -37 -36 -21 -13 -47 -34 -58 -46 l-20 -23 21 11 c11 6 26 18 34 26 7
9 17 16 22 16 6 0 5 -7 -2 -15 -10 -12 -10 -15 1 -15 7 0 -5 -18 -26 -41 -24
-24 -47 -38 -56 -36 -14 4 -18 -6 -24 -52 -11 -86 -19 -84 -26 4 -6 79 -5 80
23 105 16 14 50 46 75 73 26 26 49 47 51 47 3 0 -5 -11 -18 -25z m345 -134
l-27 -26 24 49 c19 40 24 45 26 26 3 -15 -6 -32 -23 -49z m-675 51 c0 -4 -21
-25 -46 -46 -42 -35 -47 -37 -62 -22 -19 19 -20 18 48 50 64 29 60 28 60 18z
m810 5 c0 -2 -16 -18 -35 -37 -19 -19 -35 -31 -35 -28 0 4 14 20 31 37 28 28
39 36 39 28z m-915 -87 c7 -11 -3 -15 -52 -24 -28 -5 -33 -3 -33 15 0 36 64
43 85 9z m765 -5 c0 -11 -53 -106 -62 -111 -6 -4 -9 -3 -7 2 38 86 53 114 60
114 5 0 9 -2 9 -5z m-610 -125 c-18 -33 -24 -16 -9 27 11 31 14 34 17 16 2
-12 -2 -32 -8 -43z m-119 -12 c-101 -139 -140 -181 -163 -175 -10 3 -16 2 -13
-3 3 -4 -21 -18 -53 -31 -31 -12 -61 -26 -67 -29 -5 -4 -23 -10 -40 -14 -24
-5 -33 -1 -48 20 -11 14 -16 28 -12 32 3 3 10 0 15 -8 6 -9 10 -10 10 -3 0 17
58 44 66 31 4 -7 2 -8 -4 -4 -7 4 -12 2 -12 -4 0 -7 6 -10 13 -7 6 2 12 10 12
18 0 10 11 14 35 13 19 -1 29 0 22 3 -16 6 -6 23 14 23 8 0 13 -4 9 -9 -3 -5
-2 -12 3 -15 4 -2 8 6 8 19 0 20 -3 22 -24 14 -14 -5 -27 -7 -30 -5 -5 5 15
14 89 41 50 18 106 56 154 103 22 22 42 38 43 37 2 -2 -10 -23 -27 -47z m-26
22 c-14 -23 -97 -71 -118 -68 -17 2 -6 11 48 40 80 42 78 41 70 28z m236 -153
c-4 -74 -11 -72 -11 3 0 35 3 60 7 56 4 -3 6 -30 4 -59z m-37 -86 c-4 -22 -11
-41 -16 -41 -6 0 -7 10 -3 23 3 12 9 32 12 45 9 38 14 18 7 -27z m86 4 c0 -2
-10 -9 -22 -15 -22 -11 -22 -10 -4 4 21 17 26 19 26 11z m-508 -37 c-7 -7 -12
-8 -12 -2 0 6 3 14 7 17 3 4 9 5 12 2 2 -3 -1 -11 -7 -17z m51 -51 c-49 -79
-106 -157 -114 -157 -5 0 9 25 31 55 22 30 40 57 40 60 0 12 33 55 42 55 5 0
5 -6 1 -13z m-46 -21 c-8 -19 -78 -116 -84 -116 -3 0 -1 6 5 13 12 15 52 86
52 93 0 3 -5 2 -12 -2 -7 -4 -8 -3 -4 5 4 6 12 9 17 6 5 -4 9 -1 9 4 0 6 5 11
11 11 6 0 9 -6 6 -14z m-82 -81 c-14 -21 -25 -34 -25 -29 0 14 41 77 46 71 3
-2 -6 -22 -21 -42z m105 -325 c0 -19 -19 -26 -57 -21 -7 1 -13 -3 -13 -9 0 -5
-7 -10 -15 -10 -35 0 -10 30 40 48 42 15 45 14 45 -8z m144 -225 c3 -8 1 -15
-4 -15 -6 0 -10 7 -10 15 0 8 2 15 4 15 2 0 6 -7 10 -15z m-88 -87 c-7 -5 -3
-15 10 -30 28 -31 37 -48 26 -48 -17 0 -67 73 -54 78 7 2 10 8 6 13 -3 5 -2
14 2 21 5 8 10 6 14 -8 4 -10 2 -22 -4 -26z m290 -20 c9 -29 20 -57 24 -63 12
-17 42 -101 32 -90 -12 13 -82 178 -82 194 0 24 9 9 26 -41z m-96 -29 c0 -6
-4 -7 -10 -4 -5 3 -10 11 -10 16 0 6 5 7 10 4 6 -3 10 -11 10 -16z m595 -79
c10 -11 16 -20 13 -20 -3 0 -13 9 -23 20 -10 11 -16 20 -13 20 3 0 13 -9 23
-20z m-345 -42 c27 -50 22 -48 -14 5 -14 20 -22 37 -18 37 5 0 19 -19 32 -42z
m-13 -130 c-3 -8 -6 -5 -6 6 -1 11 2 17 5 13 3 -3 4 -12 1 -19z m1 -431 c7 -5
12 -4 12 2 0 6 11 10 25 9 14 -1 25 -6 25 -11 0 -5 -7 -6 -16 -3 -8 3 -12 2
-9 -4 3 -6 16 -10 28 -10 12 0 33 -9 47 -20 31 -24 26 -24 -33 -4 -26 9 -52
14 -59 11 -15 -5 -20 -3 92 -37 41 -12 86 -29 100 -37 25 -14 24 -14 -10 -8
-19 4 -44 8 -54 10 -49 11 7 -14 79 -35 95 -27 122 -39 86 -40 -75 -1 -266 71
-257 96 7 18 -43 24 -52 7 -7 -12 -13 -12 -36 -2 -22 11 -29 10 -36 0 -4 -8
-13 -10 -19 -7 -6 4 -11 3 -11 -3 0 -5 8 -15 18 -21 15 -9 14 -10 -5 -5 -15 4
-23 2 -23 -6 0 -18 -13 -2 -17 21 -2 11 1 20 7 20 5 0 7 7 4 15 -5 11 1 15 25
15 33 0 39 8 19 28 -16 16 5 17 33 1 11 -6 25 -8 32 -6 7 2 -1 11 -18 20 -21
12 -24 16 -10 14 11 -1 26 -6 33 -10z m280 -193 c21 -9 32 -18 26 -20 -15 -6
52 -75 74 -77 12 -1 18 -7 15 -17 -3 -12 -13 -15 -41 -12 -45 6 -85 30 -78 48
3 8 0 14 -7 14 -7 0 -34 22 -60 49 l-48 49 41 -9 c23 -5 58 -17 78 -25z m-228
-59 c33 -17 41 -28 13 -18 -35 14 -68 33 -55 33 7 0 26 -7 42 -15z m345 -3
c-3 -3 -11 0 -18 7 -9 10 -8 11 6 5 10 -3 15 -9 12 -12z m-259 -37 c16 -8 22
-15 14 -15 -18 1 -70 29 -54 30 7 0 25 -7 40 -15z m-238 -35 c18 -17 30 -30
25 -30 -12 1 -79 60 -67 60 5 0 24 -13 42 -30z"/>
<path d="M2541 3816 c-9 -10 -9 -16 -1 -21 16 -10 31 7 21 23 -6 10 -10 10
-20 -2z"/>
<path d="M3723 2661 c-13 -11 -23 -23 -23 -27 0 -4 8 0 18 9 10 10 21 15 24
12 2 -3 5 2 5 10 0 8 -1 15 -1 15 -1 -1 -11 -9 -23 -19z"/>
<path d="M3665 2585 c-21 -19 -37 -37 -34 -39 2 -2 21 11 42 31 21 19 37 36
35 38 -2 3 -21 -11 -43 -30z"/>
<path d="M3585 2544 c-33 -31 -46 -47 -30 -36 28 19 104 92 94 92 -2 -1 -31
-26 -64 -56z"/>
<path d="M3715 2509 c-11 -16 -1 -19 13 -3 7 8 8 14 3 14 -5 0 -13 -5 -16 -11z"/>
<path d="M3619 2422 c-41 -38 -115 -106 -165 -151 -51 -44 -94 -90 -97 -101
-3 -11 -4 -20 -3 -20 1 0 47 44 102 98 55 53 132 128 173 165 40 38 71 71 68
73 -3 3 -38 -26 -78 -64z"/>
<path d="M3617 2373 c-34 -32 -92 -87 -130 -123 -37 -36 -77 -69 -88 -74 -11
-5 -17 -16 -14 -23 3 -10 -12 -22 -47 -37 -31 -14 -47 -26 -40 -30 7 -4 12 -2
12 3 0 6 7 11 16 11 9 0 28 9 44 20 27 19 28 19 33 0 3 -10 0 -21 -7 -23 -6
-2 2 -4 17 -4 21 0 44 14 88 57 78 75 77 88 -2 16 -52 -49 -79 -66 -79 -52 0
2 37 42 83 88 159 160 128 147 -42 -19 -44 -42 -66 -54 -59 -31 2 6 12 16 22
22 26 16 273 256 263 256 -5 0 -36 -26 -70 -57z"/>
<path d="M3039 2203 c-13 -16 -12 -17 4 -4 9 7 17 15 17 17 0 8 -8 3 -21 -13z"/>
<path d="M3492 2113 c-46 -47 -50 -74 -6 -32 32 29 68 79 57 78 -4 -1 -27 -22
-51 -46z"/>
<path d="M3094 2088 l-29 -33 33 29 c17 17 32 31 32 33 0 8 -8 1 -36 -29z"/>
<path d="M3006 2024 c-26 -20 -45 -38 -42 -41 3 -3 16 4 28 15 13 12 34 30 48
41 44 35 15 22 -34 -15z"/>
<path d="M3140 2029 c0 -5 5 -7 10 -4 6 3 10 8 10 11 0 2 -4 4 -10 4 -5 0 -10
-5 -10 -11z"/>
<path d="M2722 1828 c-20 -46 -23 -50 -39 -37 -14 10 -13 8 2 -10 41 -48 295
-204 324 -199 9 2 -15 21 -59 45 -41 23 -90 53 -109 67 -19 14 -40 26 -46 26
-6 0 -26 13 -45 29 l-35 29 18 47 c23 65 16 67 -11 3z"/>
<path d="M3185 1164 c11 -8 28 -21 38 -29 9 -8 24 -15 32 -15 8 0 15 -5 15
-10 0 -6 10 -15 23 -21 31 -14 62 -32 81 -48 9 -7 16 -10 16 -5 0 5 6 2 13 -7
7 -8 19 -18 29 -21 26 -11 15 25 -13 37 -47 21 -128 78 -123 86 3 5 -2 6 -10
3 -9 -3 -36 6 -62 20 -51 29 -70 34 -39 10z"/>
<path d="M2620 1161 c0 -6 4 -13 10 -16 6 -3 7 1 4 9 -7 18 -14 21 -14 7z"/>
<path d="M3152 1134 c10 -10 20 -15 24 -12 3 4 -5 12 -18 18 -22 12 -22 12 -6
-6z"/>
<path d="M3319 1128 c7 -10 17 -16 21 -13 4 2 15 -4 25 -15 10 -11 22 -17 26
-14 5 3 12 -1 15 -9 2 -7 11 -14 19 -14 27 0 16 14 -35 41 -27 15 -50 24 -50
20 0 -3 -8 0 -17 7 -16 13 -17 12 -4 -3z"/>
<path d="M2630 1120 c0 -5 5 -10 11 -10 5 0 7 5 4 10 -3 6 -8 10 -11 10 -2 0
-4 -4 -4 -10z"/>
<path d="M3155 1091 c17 -18 38 -37 49 -43 30 -16 11 7 -37 43 l-42 33 30 -33z"/>
<path d="M2886 1102 c-3 -5 1 -9 9 -9 8 0 12 4 9 9 -3 4 -7 8 -9 8 -2 0 -6 -4
-9 -8z"/>
<path d="M3060 1046 c24 -25 46 -46 48 -46 9 0 -64 78 -78 85 -8 3 5 -14 30
-39z"/>
<path d="M3010 1064 c0 -4 16 -24 35 -45 19 -22 35 -36 35 -33 0 4 -16 24 -35
45 -19 22 -35 36 -35 33z"/>
<path d="M3231 1057 c2 -1 13 -9 24 -17 19 -14 19 -14 6 3 -7 9 -18 17 -24 17
-6 0 -8 -1 -6 -3z"/>
<path d="M3010 1023 c0 -5 12 -20 28 -34 l27 -24 -25 30 c-14 17 -26 32 -27
34 -2 2 -3 0 -3 -6z"/>
<path d="M3280 1026 c0 -3 9 -10 20 -16 11 -6 20 -8 20 -6 0 3 -9 10 -20 16
-11 6 -20 8 -20 6z"/>
<path d="M2956 997 c3 -10 9 -15 12 -12 3 3 0 11 -7 18 -10 9 -11 8 -5 -6z"/>
<path d="M2990 1003 c0 -6 8 -17 18 -24 16 -13 16 -13 2 6 -8 11 -16 22 -17
24 -2 2 -3 0 -3 -6z"/>
<path d="M3335 990 c3 -5 11 -10 16 -10 6 0 7 5 4 10 -3 6 -11 10 -16 10 -6 0
-7 -4 -4 -10z"/>
<path d="M2930 981 c0 -6 4 -13 10 -16 6 -3 7 1 4 9 -7 18 -14 21 -14 7z"/>
<path d="M3115 980 c3 -5 8 -10 11 -10 2 0 4 5 4 10 0 6 -5 10 -11 10 -5 0 -7
-4 -4 -10z"/>
<path d="M3090 970 c0 -5 5 -10 11 -10 5 0 7 5 4 10 -3 6 -8 10 -11 10 -2 0
-4 -4 -4 -10z"/>
<path d="M3159 887 c36 -37 67 -67 69 -67 9 0 -105 124 -119 129 -8 2 15 -26
50 -62z"/>
<path d="M3490 376 c0 -2 8 -10 18 -17 15 -13 16 -12 3 4 -13 16 -21 21 -21
13z"/>
<path d="M2680 2521 c0 -5 7 -12 16 -15 14 -5 15 -4 4 9 -14 17 -20 19 -20 6z"/>
<path d="M2875 2520 c-3 -5 -2 -10 4 -10 5 0 13 5 16 10 3 6 2 10 -4 10 -5 0
-13 -4 -16 -10z"/>
<path d="M2278 1943 c7 -3 16 -2 19 1 4 3 -2 6 -13 5 -11 0 -14 -3 -6 -6z"/>
<path d="M2320 1930 c-8 -5 -10 -10 -5 -10 6 0 17 5 25 10 8 5 11 10 5 10 -5
0 -17 -5 -25 -10z"/>
<path d="M2988 288 c5 -5 16 -8 23 -6 8 3 3 7 -10 11 -17 4 -21 3 -13 -5z"/>
<path d="M2595 5140 c-13 -6 -5 -7 25 -3 25 3 47 7 49 9 9 8 -55 2 -74 -6z"/>
<path d="M2534 5114 c-18 -14 -18 -14 6 -3 31 14 36 19 24 19 -6 0 -19 -7 -30
-16z"/>
<path d="M2585 5040 c-47 -22 -86 -55 -109 -91 -15 -23 -15 -28 -1 -39 12 -10
16 -9 21 3 7 19 74 61 74 47 0 -6 -4 -10 -10 -10 -5 0 -10 -7 -10 -15 0 -7 -7
-18 -15 -23 -10 -5 -13 -15 -9 -25 5 -13 10 -14 26 -6 11 6 22 8 25 5 3 -3 -2
-8 -11 -12 -23 -9 -20 -21 7 -19 18 1 22 8 23 38 1 20 -3 37 -9 37 -5 0 -4 7
3 15 7 8 17 12 22 9 13 -8 28 15 21 33 -7 18 -43 17 -71 -3 -25 -17 -65 -27
-57 -14 3 5 33 26 65 46 33 20 60 38 60 40 0 6 -2 5 -45 -16z"/>
<path d="M3044 5012 c3 -5 24 -18 48 -31 110 -56 320 -241 388 -341 48 -70 94
-159 87 -166 -3 -3 -17 16 -32 43 -62 115 -107 181 -151 220 -69 62 -118 69
-53 7 40 -38 105 -138 122 -189 5 -15 2 -14 -10 5 -28 41 -146 161 -168 171
-11 5 -33 18 -50 28 -16 11 -41 20 -55 20 -23 1 -22 -1 15 -31 93 -74 227
-235 272 -328 25 -52 67 -147 89 -205 32 -83 30 -48 -6 90 -38 149 -83 275
-121 345 l-31 55 32 -35 c47 -53 125 -187 161 -275 39 -98 53 -190 39 -263
-11 -63 -7 -78 9 -31 33 96 -3 308 -76 444 -93 172 -288 359 -471 453 -24 12
-41 19 -38 14z m555 -612 c0 -8 -6 0 -14 19 -8 18 -15 38 -14 45 1 15 28 -46
28 -64z"/>
<path d="M1370 4916 c0 -8 4 -17 9 -20 5 -4 7 3 4 14 -6 23 -13 26 -13 6z"/>
<path d="M3572 4125 c0 -16 2 -22 5 -12 2 9 2 23 0 30 -3 6 -5 -1 -5 -18z"/>
<path d="M2080 4039 c7 -11 14 -19 16 -16 7 7 -7 37 -17 37 -6 0 -5 -9 1 -21z"/>
<path d="M2100 3736 c0 -2 8 -10 18 -17 15 -13 16 -12 3 4 -13 16 -21 21 -21
13z"/>
<path d="M88 3643 c-49 -2 -88 -8 -88 -14 0 -9 132 -4 187 7 16 3 23 -1 26
-18 4 -20 4 -19 6 5 1 22 -3 27 -21 25 -13 -1 -62 -4 -110 -5z"/>
<path d="M1701 3574 c0 -11 3 -14 6 -6 3 7 2 16 -1 19 -3 4 -6 -2 -5 -13z"/>
<path d="M200 3563 c0 -5 -17 -14 -37 -20 -32 -9 -34 -11 -12 -12 28 -1 68 23
56 35 -4 4 -7 3 -7 -3z"/>
<path d="M98 3533 c7 -3 16 -2 19 1 4 3 -2 6 -13 5 -11 0 -14 -3 -6 -6z"/>
<path d="M2118 3468 c9 -9 15 -9 24 0 9 9 7 12 -12 12 -19 0 -21 -3 -12 -12z"/>
<path d="M3027 3440 c-8 -22 -12 -40 -7 -40 9 0 34 69 28 76 -3 2 -12 -14 -21
-36z"/>
<path d="M182 3380 c0 -14 2 -19 5 -12 2 6 2 18 0 25 -3 6 -5 1 -5 -13z"/>
<path d="M210 3365 c0 -8 7 -15 15 -15 8 0 15 7 15 15 0 8 -7 15 -15 15 -8 0
-15 -7 -15 -15z"/>
<path d="M283 3361 c1 -12 7 -17 19 -13 24 6 23 32 -1 32 -13 0 -19 -6 -18
-19z"/>
<path d="M362 3298 l2 -83 3 68 c2 39 8 65 13 62 6 -4 10 3 10 14 0 12 -7 21
-15 21 -12 0 -15 -15 -13 -82z"/>
<path d="M430 3370 c0 -5 4 -10 9 -10 5 0 12 -10 14 -22 3 -17 5 -14 6 10 1
22 -3 32 -14 32 -8 0 -15 -4 -15 -10z"/>
<path d="M510 3370 c0 -5 7 -10 16 -10 8 0 12 5 9 10 -3 6 -10 10 -16 10 -5 0
-9 -4 -9 -10z"/>
<path d="M590 3370 c0 -5 4 -10 9 -10 6 0 13 5 16 10 3 6 -1 10 -9 10 -9 0
-16 -4 -16 -10z"/>
<path d="M660 3370 c0 -5 7 -10 16 -10 8 0 12 5 9 10 -3 6 -10 10 -16 10 -5 0
-9 -4 -9 -10z"/>
<path d="M740 3371 c0 -5 7 -11 15 -15 9 -3 15 0 15 9 0 8 -7 15 -15 15 -8 0
-15 -4 -15 -9z"/>
<path d="M822 3368 c6 -18 25 -21 25 -3 0 8 -7 15 -14 15 -8 0 -13 -5 -11 -12z"/>
<path d="M890 3370 c0 -5 7 -10 15 -10 8 0 15 5 15 10 0 6 -7 10 -15 10 -8 0
-15 -4 -15 -10z"/>
<path d="M960 3370 c0 -5 7 -10 15 -10 8 0 15 5 15 10 0 6 -7 10 -15 10 -8 0
-15 -4 -15 -10z"/>
<path d="M1030 3370 c0 -5 5 -10 10 -10 6 0 10 5 10 10 0 6 -4 10 -10 10 -5 0
-10 -4 -10 -10z"/>
<path d="M1176 3284 c95 -92 154 -144 154 -136 1 4 7 -4 15 -18 7 -14 17 -24
22 -22 4 1 11 -24 14 -55 6 -58 6 -58 7 -11 1 25 6 48 10 50 5 2 -45 50 -110
108 -152 134 -203 172 -112 84z"/>
<path d="M172 3255 c0 -16 2 -22 5 -12 2 9 2 23 0 30 -3 6 -5 -1 -5 -18z"/>
<path d="M2245 3269 c3 -3 16 -4 30 -1 14 2 32 -1 40 -8 9 -7 18 -10 21 -7 10
10 -35 27 -65 25 -16 -1 -28 -5 -26 -9z"/>
<path d="M126 3237 c3 -10 9 -15 12 -12 3 3 0 11 -7 18 -10 9 -11 8 -5 -6z"/>
<path d="M103 3197 c-37 -12 -44 -27 -13 -27 11 0 20 5 20 10 0 6 6 10 14 10
8 0 18 5 21 10 7 12 2 11 -42 -3z"/>
<path d="M2525 3170 c-17 -7 -16 -9 10 -9 17 0 37 4 45 9 12 8 10 10 -10 9
-14 0 -34 -4 -45 -9z"/>
<path d="M2451 3147 c-14 -6 -26 -18 -29 -24 -5 -17 25 -17 35 0 4 8 17 19 28
25 28 16 -3 15 -34 -1z"/>
<path d="M313 3085 c0 -22 2 -30 4 -17 2 12 2 30 0 40 -3 9 -5 -1 -4 -23z"/>
<path d="M92 3079 l-97 -5 123 -2 c119 -2 122 -2 122 -24 0 -155 14 -704 18
-708 2 -3 3 165 1 372 l-4 377 -33 -2 c-18 -1 -77 -5 -130 -8z"/>
<path d="M1430 3063 c0 -11 80 -85 80 -75 0 4 7 -2 15 -12 8 -11 16 -43 17
-70 l1 -51 6 48 6 48 31 -29 c59 -54 124 -104 123 -96 0 5 -32 36 -71 69 -39
33 -94 80 -122 105 -70 62 -86 74 -86 63z"/>
<path d="M1645 3050 c10 -11 20 -20 23 -20 3 0 -3 9 -13 20 -10 11 -20 20 -23
20 -3 0 3 -9 13 -20z"/>
<path d="M1381 2974 c0 -11 3 -14 6 -6 3 7 2 16 -1 19 -3 4 -6 -2 -5 -13z"/>
<path d="M1730 2983 c0 -5 13 -17 28 -27 l27 -19 -24 26 c-26 28 -31 32 -31
20z"/>
<path d="M1800 2926 c0 -2 8 -10 18 -17 15 -13 16 -12 3 4 -13 16 -21 21 -21
13z"/>
<path d="M1343 2850 c0 -30 2 -43 4 -27 2 15 2 39 0 55 -2 15 -4 2 -4 -28z"/>
<path d="M5245 2860 c3 -5 11 -10 16 -10 6 0 7 5 4 10 -3 6 -11 10 -16 10 -6
0 -7 -4 -4 -10z"/>
<path d="M1472 2825 c0 -16 2 -22 5 -12 2 9 2 23 0 30 -3 6 -5 -1 -5 -18z"/>
<path d="M1542 2825 c0 -16 2 -22 5 -12 2 9 2 23 0 30 -3 6 -5 -1 -5 -18z"/>
<path d="M1371 2814 c0 -11 3 -14 6 -6 3 7 2 16 -1 19 -3 4 -6 -2 -5 -13z"/>
<path d="M1720 2814 c0 -3 9 -17 20 -31 17 -22 20 -23 20 -7 0 11 -9 25 -20
32 -11 7 -20 9 -20 6z"/>
<path d="M4661 2804 c0 -11 3 -14 6 -6 3 7 2 16 -1 19 -3 4 -6 -2 -5 -13z"/>
<path d="M324 2615 c0 -104 2 -146 3 -92 2 54 2 139 0 190 -1 51 -3 7 -3 -98z"/>
<path d="M1770 2772 c0 -6 5 -14 11 -17 6 -4 14 -17 19 -29 9 -21 9 -21 9 0 1
11 -8 29 -19 39 -11 10 -20 13 -20 7z"/>
<path d="M4375 2770 c-3 -6 1 -7 9 -4 18 7 21 14 7 14 -6 0 -13 -4 -16 -10z"/>
<path d="M5020 2764 c0 -8 5 -12 10 -9 6 4 8 11 5 16 -9 14 -15 11 -15 -7z"/>
<path d="M1397 2753 c-4 -3 -7 -11 -7 -17 0 -6 5 -5 12 2 6 6 9 14 7 17 -3 3
-9 2 -12 -2z"/>
<path d="M2498 2743 c7 -3 16 -2 19 1 4 3 -2 6 -13 5 -11 0 -14 -3 -6 -6z"/>
<path d="M5577 2730 c-3 -11 -1 -20 4 -20 5 0 9 9 9 20 0 11 -2 20 -4 20 -2 0
-6 -9 -9 -20z"/>
<path d="M1340 2623 c-3 -67 -1 -119 3 -114 4 4 6 59 5 122 l-3 114 -5 -122z"/>
<path d="M1 2640 c2 -86 3 -90 19 -75 14 13 20 14 26 4 4 -7 3 -14 -3 -16 -7
-3 -9 -15 -7 -29 2 -13 0 -24 -6 -24 -6 0 -9 4 -5 9 3 5 1 12 -4 15 -5 3 -11
-3 -14 -14 -4 -15 0 -20 15 -20 13 0 17 -4 12 -12 -5 -9 -2 -8 9 1 20 16 30
12 18 -7 -4 -7 -17 -14 -29 -15 -11 0 -18 -5 -16 -9 3 -5 10 -6 15 -3 5 4 9 1
9 -4 0 -6 -6 -11 -12 -11 -7 -1 -1 -8 15 -16 28 -15 37 -27 14 -18 -7 2 -24 0
-38 -5 l-24 -9 25 -11 25 -10 -23 -7 c-18 -5 -20 -9 -10 -15 10 -7 10 -9 1 -9
-7 0 -13 -12 -13 -27 0 -25 1 -25 18 -10 47 43 83 160 76 246 -4 48 -68 191
-85 191 -6 0 -9 -36 -8 -90z m29 -40 c0 -5 -5 -10 -11 -10 -5 0 -7 5 -4 10 3
6 8 10 11 10 2 0 4 -4 4 -10z"/>
<path d="M1223 2715 c-3 -9 -3 -18 -1 -21 3 -3 8 4 11 16 6 23 -1 27 -10 5z"/>
<path d="M1831 2710 c9 -14 19 -24 23 -22 14 5 10 15 -14 31 l-25 16 16 -25z"/>
<path d="M4365 2710 c3 -5 10 -10 16 -10 5 0 9 5 9 10 0 6 -7 10 -16 10 -8 0
-12 -4 -9 -10z"/>
<path d="M4473 2714 c7 -8 118 -6 125 1 3 3 -25 5 -63 5 -38 0 -65 -3 -62 -6z"/>
<path d="M4637 2713 c20 -3 33 -11 35 -21 3 -13 5 -12 10 6 6 20 3 22 -35 20
-36 -1 -38 -2 -10 -5z"/>
<path d="M4823 2681 c-1 -14 1 -19 4 -11 3 8 10 18 15 21 5 3 3 9 -4 11 -9 4
-14 -3 -15 -21z"/>
<path d="M1574 2540 c0 -91 2 -128 3 -82 2 45 2 119 0 165 -1 45 -3 8 -3 -83z"/>
<path d="M5160 2675 c0 -8 4 -15 10 -15 5 0 7 7 4 15 -4 8 -8 15 -10 15 -2 0
-4 -7 -4 -15z"/>
<path d="M1206 2665 c-3 -9 -6 -22 -5 -28 0 -7 5 -1 10 12 5 13 8 26 5 28 -2
2 -6 -3 -10 -12z"/>
<path d="M1880 2672 c0 -16 28 -34 34 -23 4 6 -3 15 -14 21 -11 6 -20 7 -20 2z"/>
<path d="M2565 2670 c-3 -5 -1 -10 4 -10 6 0 11 5 11 10 0 6 -2 10 -4 10 -3 0
-8 -4 -11 -10z"/>
<path d="M2531 2654 c0 -11 3 -14 6 -6 3 7 2 16 -1 19 -3 4 -6 -2 -5 -13z"/>
<path d="M4661 2654 c0 -11 3 -14 6 -6 3 7 2 16 -1 19 -3 4 -6 -2 -5 -13z"/>
<path d="M5310 2660 c-13 -8 -12 -10 3 -10 9 0 17 5 17 10 0 12 -1 12 -20 0z"/>
<path d="M1534 2505 c0 -88 2 -123 3 -77 2 46 2 118 0 160 -1 42 -3 5 -3 -83z"/>
<path d="M1930 2634 c1 -16 28 -45 34 -36 3 5 -3 17 -14 27 -11 10 -20 14 -20
9z"/>
<path d="M1502 2605 c0 -16 2 -22 5 -12 2 9 2 23 0 30 -3 6 -5 -1 -5 -18z"/>
<path d="M4658 2612 c-3 -10 1 -23 7 -29 10 -9 14 -8 17 5 3 10 -1 23 -7 29
-10 9 -14 8 -17 -5z"/>
<path d="M4787 2623 c-3 -4 1 -17 9 -28 10 -13 14 -15 14 -4 0 20 -16 43 -23
32z"/>
<path d="M5250 2620 c0 -5 5 -10 11 -10 5 0 7 5 4 10 -3 6 -8 10 -11 10 -2 0
-4 -4 -4 -10z"/>
<path d="M1191 2613 c0 -6 -4 -20 -7 -30 -5 -14 -4 -15 5 -7 7 7 11 20 8 30
-3 11 -5 14 -6 7z"/>
<path d="M4413 2593 c9 -2 23 -2 30 0 6 3 -1 5 -18 5 -16 0 -22 -2 -12 -5z"/>
<path d="M4548 2593 c6 -2 18 -2 25 0 6 3 1 5 -13 5 -14 0 -19 -2 -12 -5z"/>
<path d="M4618 2593 c7 -3 16 -2 19 1 4 3 -2 6 -13 5 -11 0 -14 -3 -6 -6z"/>
<path d="M1311 2574 c0 -11 3 -14 6 -6 3 7 2 16 -1 19 -3 4 -6 -2 -5 -13z"/>
<path d="M1980 2582 c0 -5 7 -16 16 -23 14 -12 16 -11 13 5 -4 20 -29 35 -29
18z"/>
<path d="M5180 2574 c0 -8 5 -12 10 -9 6 4 8 11 5 16 -9 14 -15 11 -15 -7z"/>
<path d="M5220 2564 c0 -8 5 -12 10 -9 6 4 8 11 5 16 -9 14 -15 11 -15 -7z"/>
<path d="M1012 2520 c0 -19 2 -27 5 -17 2 9 2 25 0 35 -3 9 -5 1 -5 -18z"/>
<path d="M1165 2530 c-4 -12 -5 -24 -2 -27 3 -2 8 5 12 17 4 12 5 24 2 27 -3
2 -8 -5 -12 -17z"/>
<path d="M2040 2531 c0 -6 4 -11 8 -11 15 0 70 -85 75 -115 4 -29 4 -29 6 5
l2 35 18 -22 c14 -17 20 -19 24 -9 3 8 -22 36 -64 70 -38 32 -69 52 -69 47z"/>
<path d="M5202 2525 c-11 -13 -9 -15 8 -15 11 0 20 7 20 15 0 19 -11 19 -28 0z"/>
<path d="M5537 2523 c-4 -3 -7 -11 -7 -17 0 -6 5 -5 12 2 6 6 9 14 7 17 -3 3
-9 2 -12 -2z"/>
<path d="M1281 2504 c0 -11 3 -14 6 -6 3 7 2 16 -1 19 -3 4 -6 -2 -5 -13z"/>
<path d="M2002 2495 c0 -16 2 -22 5 -12 2 9 2 23 0 30 -3 6 -5 -1 -5 -18z"/>
<path d="M4793 2485 c0 -22 2 -30 4 -17 2 12 2 30 0 40 -3 9 -5 -1 -4 -23z"/>
<path d="M4908 2513 c7 -3 16 -2 19 1 4 3 -2 6 -13 5 -11 0 -14 -3 -6 -6z"/>
<path d="M4948 2513 c7 -3 16 -2 19 1 4 3 -2 6 -13 5 -11 0 -14 -3 -6 -6z"/>
<path d="M5033 2513 c9 -2 23 -2 30 0 6 3 -1 5 -18 5 -16 0 -22 -2 -12 -5z"/>
<path d="M5128 2513 c6 -2 18 -2 25 0 6 3 1 5 -13 5 -14 0 -19 -2 -12 -5z"/>
<path d="M1087 2493 c-4 -3 -7 -16 -6 -27 0 -19 1 -19 10 3 10 24 8 36 -4 24z"/>
<path d="M4891 2484 c0 -11 3 -14 6 -6 3 7 2 16 -1 19 -3 4 -6 -2 -5 -13z"/>
<path d="M5250 2489 c-10 -6 0 -9 34 -9 54 0 57 4 11 13 -17 3 -37 2 -45 -4z"/>
<path d="M1339 2483 c-5 -24 -4 -72 0 -68 6 6 10 75 5 75 -2 0 -5 -3 -5 -7z"/>
<path d="M4259 2458 c4 -28 6 -29 9 -9 2 13 0 27 -5 32 -6 6 -7 -3 -4 -23z"/>
<path d="M5208 2483 c7 -3 16 -2 19 1 4 3 -2 6 -13 5 -11 0 -14 -3 -6 -6z"/>
<path d="M5348 2483 c6 -2 18 -2 25 0 6 3 1 5 -13 5 -14 0 -19 -2 -12 -5z"/>
<path d="M5458 2483 c6 -2 18 -2 25 0 6 3 1 5 -13 5 -14 0 -19 -2 -12 -5z"/>
<path d="M445 2470 c-10 -16 4 -29 43 -39 47 -13 171 -23 184 -15 5 4 56 7
114 8 79 1 100 4 91 13 -14 13 -242 27 -261 16 -23 -15 -101 -8 -118 10 -20
19 -44 22 -53 7z"/>
<path d="M1141 2449 c-6 -18 -11 -37 -10 -43 0 -6 7 7 15 28 8 22 12 41 10 43
-2 2 -9 -10 -15 -28z"/>
<path d="M1282 2460 c0 -14 2 -19 5 -12 2 6 2 18 0 25 -3 6 -5 1 -5 -13z"/>
<path d="M4108 2458 c-21 -6 -38 -14 -38 -20 0 -5 5 -6 11 -2 6 4 32 12 58 19
25 7 37 13 26 13 -11 0 -37 -5 -57 -10z"/>
<path d="M4640 2450 c0 -5 5 -10 11 -10 5 0 7 5 4 10 -3 6 -8 10 -11 10 -2 0
-4 -4 -4 -10z"/>
<path d="M4748 2453 c7 -3 16 -2 19 1 4 3 -2 6 -13 5 -11 0 -14 -3 -6 -6z"/>
<path d="M4890 2450 c8 -5 20 -10 25 -10 6 0 3 5 -5 10 -8 5 -19 10 -25 10 -5
0 -3 -5 5 -10z"/>
<path d="M1281 2414 c0 -11 3 -14 6 -6 3 7 2 16 -1 19 -3 4 -6 -2 -5 -13z"/>
<path d="M1303 2415 c0 -8 4 -12 9 -9 5 3 6 10 3 15 -9 13 -12 11 -12 -6z"/>
<path d="M1493 2380 c0 -30 2 -43 4 -27 2 15 2 39 0 55 -2 15 -4 2 -4 -28z"/>
<path d="M4203 2423 c9 -2 23 -2 30 0 6 3 -1 5 -18 5 -16 0 -22 -2 -12 -5z"/>
<path d="M4616 2408 c-9 -12 -16 -34 -15 -48 1 -21 2 -20 11 10 5 19 14 41 20
48 6 6 8 12 5 12 -3 0 -13 -10 -21 -22z"/>
<path d="M4951 2358 c-33 -38 -48 -47 -63 -42 -14 4 -18 2 -14 -5 14 -22 43
-10 75 29 17 22 38 40 45 40 16 0 66 -52 66 -69 0 -7 5 -9 11 -6 7 5 4 14 -7
26 -11 12 -13 19 -5 19 7 0 9 5 6 10 -4 6 -11 8 -16 5 -5 -4 -19 5 -31 18
l-23 24 -44 -49z"/>
<path d="M1994 2295 c0 -60 1 -84 3 -52 2 32 2 81 0 110 -2 29 -3 3 -3 -58z"/>
<path d="M2200 2395 c0 -5 7 -17 17 -27 9 -10 20 -35 24 -56 7 -35 7 -35 6 12
-2 38 -7 52 -24 64 -13 8 -23 11 -23 7z"/>
<path d="M1304 2185 c0 -115 2 -161 3 -102 2 59 2 154 0 210 -1 56 -3 8 -3
-108z"/>
<path d="M422 2345 c0 -16 2 -22 5 -12 2 9 2 23 0 30 -3 6 -5 -1 -5 -18z"/>
<path d="M921 2354 c0 -11 3 -14 6 -6 3 7 2 16 -1 19 -3 4 -6 -2 -5 -13z"/>
<path d="M1041 2334 c-6 -21 -9 -40 -6 -42 2 -2 8 13 14 34 6 21 9 40 6 42 -2
2 -8 -13 -14 -34z"/>
<path d="M1281 2354 c0 -11 3 -14 6 -6 3 7 2 16 -1 19 -3 4 -6 -2 -5 -13z"/>
<path d="M4693 2356 c2 -6 23 -9 46 -7 25 1 57 -4 77 -14 20 -9 38 -14 41 -11
10 10 -50 29 -110 35 -37 5 -56 3 -54 -3z"/>
<path d="M1463 2310 c0 -25 2 -35 4 -22 2 12 2 32 0 45 -2 12 -4 2 -4 -23z"/>
<path d="M5297 2326 c10 -13 21 -22 26 -19 4 2 7 1 7 -4 0 -4 11 -9 24 -9 14
-1 38 -9 55 -17 17 -9 31 -11 31 -6 0 5 -21 18 -47 30 -27 11 -60 27 -75 35
-37 20 -42 18 -21 -10z"/>
<path d="M1334 2200 c0 -80 2 -112 3 -72 2 39 2 105 0 145 -1 39 -3 7 -3 -73z"/>
<path d="M1531 2324 c0 -11 3 -14 6 -6 3 7 2 16 -1 19 -3 4 -6 -2 -5 -13z"/>
<path d="M2280 2313 c0 -9 3 -13 7 -10 11 12 33 -15 34 -42 l1 -26 7 25 c6 18
3 31 -12 48 -24 26 -37 28 -37 5z"/>
<path d="M4671 2314 c0 -11 3 -14 6 -6 3 7 2 16 -1 19 -3 4 -6 -2 -5 -13z"/>
<path d="M1494 2215 c0 -60 1 -84 3 -52 2 32 2 81 0 110 -2 29 -3 3 -3 -58z"/>
<path d="M1091 2284 c0 -11 3 -14 6 -6 3 7 2 16 -1 19 -3 4 -6 -2 -5 -13z"/>
<path d="M4802 2273 c-1 -18 -7 -33 -13 -33 -17 0 -1 -17 21 -23 16 -4 18 -2
11 6 -5 7 -11 28 -14 47 l-4 35 -1 -32z"/>
<path d="M2282 2270 c0 -14 2 -19 5 -12 2 6 2 18 0 25 -3 6 -5 1 -5 -13z"/>
<path d="M5023 2257 c-2 -23 0 -28 7 -17 12 18 13 50 3 50 -5 0 -9 -15 -10
-33z"/>
<path d="M1010 2240 c-6 -23 -9 -44 -6 -47 2 -3 10 14 16 37 6 23 9 44 6 47
-2 3 -10 -14 -16 -37z"/>
<path d="M1281 2264 c0 -11 3 -14 6 -6 3 7 2 16 -1 19 -3 4 -6 -2 -5 -13z"/>
<path d="M261 2254 c0 -11 3 -14 6 -6 3 7 2 16 -1 19 -3 4 -6 -2 -5 -13z"/>
<path d="M1364 2085 c0 -104 2 -146 3 -92 2 54 2 139 0 190 -1 51 -3 7 -3 -98z"/>
<path d="M5131 2254 c0 -11 3 -14 6 -6 3 7 2 16 -1 19 -3 4 -6 -2 -5 -13z"/>
<path d="M5056 2244 c-9 -22 -8 -23 13 -21 12 1 17 7 13 19 -5 22 -18 23 -26
2z"/>
<path d="M5492 2230 c0 -19 2 -27 5 -17 2 9 2 25 0 35 -3 9 -5 1 -5 -18z"/>
<path d="M5527 2231 c-3 -12 -1 -21 3 -21 14 0 19 15 11 29 -6 9 -10 7 -14 -8z"/>
<path d="M261 2214 c0 -11 3 -14 6 -6 3 7 2 16 -1 19 -3 4 -6 -2 -5 -13z"/>
<path d="M1071 2214 c0 -11 3 -14 6 -6 3 7 2 16 -1 19 -3 4 -6 -2 -5 -13z"/>
<path d="M1564 2095 c0 -77 2 -107 3 -67 2 40 2 103 0 140 -2 37 -3 4 -3 -73z"/>
<path d="M5570 2214 c0 -8 5 -12 10 -9 6 4 8 11 5 16 -9 14 -15 11 -15 -7z"/>
<path d="M1524 2060 c0 -85 2 -120 3 -77 2 42 2 112 0 155 -1 42 -3 7 -3 -78z"/>
<path d="M4412 2175 c0 -16 2 -22 5 -12 2 9 2 23 0 30 -3 6 -5 -1 -5 -18z"/>
<path d="M2315 2181 c-3 -5 -2 -12 3 -15 5 -3 9 1 9 9 0 17 -3 19 -12 6z"/>
<path d="M4766 2175 c-3 -9 0 -15 9 -15 16 0 20 16 6 24 -5 3 -11 -1 -15 -9z"/>
<path d="M991 2164 c0 -11 3 -14 6 -6 3 7 2 16 -1 19 -3 4 -6 -2 -5 -13z"/>
<path d="M2135 2170 c-3 -6 1 -7 9 -4 18 7 21 14 7 14 -6 0 -13 -4 -16 -10z"/>
<path d="M2190 2170 c0 -5 7 -7 15 -4 8 4 15 8 15 10 0 2 -7 4 -15 4 -8 0 -15
-4 -15 -10z"/>
<path d="M2228 2134 c-2 -25 0 -48 4 -50 5 -3 8 18 8 45 0 64 -7 66 -12 5z"/>
<path d="M2276 2164 c-8 -22 -8 -89 1 -80 6 6 14 96 8 96 -2 0 -6 -7 -9 -16z"/>
<path d="M5600 2164 c0 -8 5 -12 10 -9 6 4 8 11 5 16 -9 14 -15 11 -15 -7z"/>
<path d="M1051 2154 c0 -11 3 -14 6 -6 3 7 2 16 -1 19 -3 4 -6 -2 -5 -13z"/>
<path d="M1604 2080 c0 -52 1 -74 3 -47 2 26 2 68 0 95 -2 26 -3 4 -3 -48z"/>
<path d="M3953 2130 c-23 -22 -39 -40 -35 -40 9 1 41 29 66 58 29 34 16 26
-31 -18z"/>
<path d="M4713 2163 c18 -5 18 -5 0 -26 -14 -18 -13 -17 10 2 15 14 27 26 27
28 0 2 -12 2 -27 2 -19 -1 -22 -3 -10 -6z"/>
<path d="M5296 2155 c-3 -8 -1 -15 4 -15 6 0 10 7 10 15 0 8 -2 15 -4 15 -2 0
-6 -7 -10 -15z"/>
<path d="M901 2144 c0 -11 3 -14 6 -6 3 7 2 16 -1 19 -3 4 -6 -2 -5 -13z"/>
<path d="M260 2100 c0 -29 3 -50 7 -46 7 7 5 87 -3 95 -2 2 -4 -20 -4 -49z"/>
<path d="M2133 2115 c0 -22 2 -30 4 -17 2 12 2 30 0 40 -3 9 -5 -1 -4 -23z"/>
<path d="M4248 2133 c7 -3 16 -2 19 1 4 3 -2 6 -13 5 -11 0 -14 -3 -6 -6z"/>
<path d="M4779 2123 c-13 -16 -12 -17 4 -4 16 13 21 21 13 21 -2 0 -10 -8 -17
-17z"/>
<path d="M5606 2125 c-3 -8 -1 -15 4 -15 6 0 10 7 10 15 0 8 -2 15 -4 15 -2 0
-6 -7 -10 -15z"/>
<path d="M431 2114 c0 -11 3 -14 6 -6 3 7 2 16 -1 19 -3 4 -6 -2 -5 -13z"/>
<path d="M1155 2083 c106 -164 220 -332 223 -328 3 2 -20 42 -49 87 -30 46
-81 124 -114 175 -33 51 -64 92 -69 93 -4 0 0 -12 9 -27z"/>
<path d="M2152 2075 c0 -16 2 -22 5 -12 2 9 2 23 0 30 -3 6 -5 -1 -5 -18z"/>
<path d="M431 2074 c0 -11 3 -14 6 -6 3 7 2 16 -1 19 -3 4 -6 -2 -5 -13z"/>
<path d="M890 2038 c-1 -38 -5 -46 -34 -64 -18 -12 -50 -24 -70 -28 -20 -4
-34 -11 -31 -16 6 -10 95 18 125 40 17 12 22 28 23 63 1 26 -1 47 -5 47 -5 0
-8 -19 -8 -42z"/>
<path d="M961 2064 c0 -11 3 -14 6 -6 3 7 2 16 -1 19 -3 4 -6 -2 -5 -13z"/>
<path d="M1701 2064 c0 -11 3 -14 6 -6 3 7 2 16 -1 19 -3 4 -6 -2 -5 -13z"/>
<path d="M1983 2000 c0 -41 2 -58 4 -37 2 20 2 54 0 75 -2 20 -4 3 -4 -38z"/>
<path d="M4171 2054 c0 -11 3 -14 6 -6 3 7 2 16 -1 19 -3 4 -6 -2 -5 -13z"/>
<path d="M5360 2060 c-26 -5 -16 -7 37 -6 39 1 75 5 79 9 9 9 -69 7 -116 -3z"/>
<path d="M5633 2063 c9 -2 25 -2 35 0 9 3 1 5 -18 5 -19 0 -27 -2 -17 -5z"/>
<path d="M4403 2000 c0 -36 2 -50 4 -32 2 17 2 47 0 65 -2 17 -4 3 -4 -33z"/>
<path d="M4915 2050 c4 -6 11 -8 16 -5 14 9 11 15 -7 15 -8 0 -12 -5 -9 -10z"/>
<path d="M5143 2053 c15 -2 39 -2 55 0 15 2 2 4 -28 4 -30 0 -43 -2 -27 -4z"/>
<path d="M4750 2042 c0 -4 14 -13 31 -21 17 -7 71 -36 120 -63 49 -27 94 -48
99 -46 6 2 -41 30 -105 62 -63 33 -115 63 -115 68 0 4 -7 8 -15 8 -8 0 -15 -3
-15 -8z"/>
<path d="M431 2020 c-1 -30 7 -43 36 -59 32 -16 41 -13 14 5 -13 9 -29 31 -37
48 -13 29 -13 30 -13 6z"/>
<path d="M1011 2024 c0 -11 3 -14 6 -6 3 7 2 16 -1 19 -3 4 -6 -2 -5 -13z"/>
<path d="M1686 2025 c-3 -9 -6 -22 -5 -28 0 -7 5 -1 10 12 5 13 8 26 5 28 -2
2 -6 -3 -10 -12z"/>
<path d="M58 2012 l-58 -3 0 -34 c0 -31 3 -35 28 -35 18 0 35 10 52 30 18 22
35 31 63 33 21 2 41 -1 46 -7 17 -24 43 -108 38 -128 -3 -11 -3 -17 0 -14 3 3
14 1 24 -5 24 -12 24 -11 -7 86 l-26 82 -51 -1 c-29 -1 -78 -2 -109 -4z"/>
<path d="M3646 1995 c-3 -9 -6 -24 -5 -33 0 -9 5 -4 10 12 9 32 6 48 -5 21z"/>
<path d="M3909 1983 c-17 -15 -38 -42 -45 -60 -22 -51 -16 -53 9 -3 15 30 35
52 62 67 22 13 32 23 23 23 -9 0 -31 -12 -49 -27z"/>
<path d="M4041 1994 c0 -11 3 -14 6 -6 3 7 2 16 -1 19 -3 4 -6 -2 -5 -13z"/>
<path d="M4181 1974 c0 -11 3 -14 6 -6 3 7 2 16 -1 19 -3 4 -6 -2 -5 -13z"/>
<path d="M4032 1940 c0 -14 2 -19 5 -12 2 6 2 18 0 25 -3 6 -5 1 -5 -13z"/>
<path d="M1453 1900 c0 -30 2 -43 4 -27 2 15 2 39 0 55 -2 15 -4 2 -4 -28z"/>
<path d="M3661 1924 c0 -11 3 -14 6 -6 3 7 2 16 -1 19 -3 4 -6 -2 -5 -13z"/>
<path d="M5230 1932 c-79 -1 -148 -6 -153 -11 -8 -8 433 -3 441 4 7 6 -147 10
-288 7z"/>
<path d="M5530 1931 c0 -5 9 -7 20 -4 11 3 20 7 20 9 0 2 -9 4 -20 4 -11 0
-20 -4 -20 -9z"/>
<path d="M5593 1933 c4 -3 23 -6 42 -6 19 0 38 3 42 6 3 4 -15 7 -42 7 -27 0
-45 -3 -42 -7z"/>
<path d="M126 1903 c-4 -16 -9 -36 -12 -46 -5 -15 2 -14 45 10 64 35 69 63 12
63 -34 0 -40 -3 -45 -27z"/>
<path d="M633 1923 c15 -2 39 -2 55 0 15 2 2 4 -28 4 -30 0 -43 -2 -27 -4z"/>
<path d="M4192 1910 c0 -14 2 -19 5 -12 2 6 2 18 0 25 -3 6 -5 1 -5 -13z"/>
<path d="M4393 1865 c0 -38 2 -53 4 -32 2 20 2 52 0 70 -2 17 -4 1 -4 -38z"/>
<path d="M1478 1834 c-2 -47 0 -91 4 -98 4 -6 8 33 8 87 0 53 -2 97 -4 97 -3
0 -6 -39 -8 -86z"/>
<path d="M1641 1889 c-6 -18 -11 -37 -10 -43 0 -6 7 7 15 28 8 22 12 41 10 43
-2 2 -9 -10 -15 -28z"/>
<path d="M5638 1903 c7 -3 16 -2 19 1 4 3 -2 6 -13 5 -11 0 -14 -3 -6 -6z"/>
<path d="M1551 1884 c0 -11 3 -14 6 -6 3 7 2 16 -1 19 -3 4 -6 -2 -5 -13z"/>
<path d="M901 1873 c-1 -6 -4 -20 -7 -30 -5 -17 -5 -17 6 0 6 10 9 23 6 30 -3
9 -5 9 -5 0z"/>
<path d="M2120 1875 c0 -2 6 -8 13 -14 10 -8 14 -7 14 2 0 8 -6 14 -14 14 -7
0 -13 -1 -13 -2z"/>
<path d="M4887 1863 c-4 -3 -7 -19 -7 -34 0 -15 -5 -29 -11 -31 -7 -2 -6 -8 4
-16 13 -11 15 -6 19 38 1 27 3 50 2 50 0 0 -4 -3 -7 -7z"/>
<path d="M1550 1759 c-3 -59 -3 -120 0 -135 l6 -29 7 25 c3 14 3 26 -1 27 -4
2 -6 33 -4 71 2 37 2 85 0 107 -2 22 -6 -8 -8 -66z"/>
<path d="M3841 1834 c0 -11 3 -14 6 -6 3 7 2 16 -1 19 -3 4 -6 -2 -5 -13z"/>
<path d="M1513 1760 c0 -47 2 -66 4 -42 2 23 2 61 0 85 -2 23 -4 4 -4 -43z"/>
<path d="M1973 1760 c0 -47 2 -66 4 -42 2 23 2 61 0 85 -2 23 -4 4 -4 -43z"/>
<path d="M4202 1820 c0 -14 2 -19 5 -12 2 6 2 18 0 25 -3 6 -5 1 -5 -13z"/>
<path d="M5186 1807 c-10 -48 -7 -57 14 -57 22 0 28 9 32 54 2 23 -1 29 -19
31 -16 1 -23 -5 -27 -28z"/>
<path d="M5250 1823 c0 -10 -3 -28 -6 -40 -5 -20 -2 -23 20 -23 22 0 26 4 26
30 0 17 1 33 3 38 1 4 -8 8 -20 10 -17 2 -23 -2 -23 -15z"/>
<path d="M5310 1814 c-14 -36 -12 -51 6 -58 22 -8 25 -5 31 43 5 34 3 41 -11
41 -9 0 -21 -12 -26 -26z"/>
<path d="M5367 1833 c-4 -3 -7 -19 -7 -35 0 -28 0 -28 25 -12 29 19 34 54 7
54 -10 0 -22 -3 -25 -7z"/>
<path d="M5457 1818 c-7 -26 -1 -38 19 -38 9 0 14 11 14 30 0 35 -25 41 -33 8z"/>
<path d="M5507 1833 c-13 -13 -7 -73 7 -73 14 0 26 29 26 63 0 17 -20 23 -33
10z"/>
<path d="M5548 1804 c-3 -24 0 -38 9 -41 18 -7 19 -5 27 40 6 32 4 37 -12 37
-15 0 -21 -9 -24 -36z"/>
<path d="M5599 1815 c-1 -14 -2 -31 -3 -37 -1 -7 7 -14 17 -16 12 -3 17 3 17
21 0 14 3 32 6 41 4 12 0 16 -15 16 -15 0 -21 -7 -22 -25z"/>
<path d="M5020 1810 c0 -16 5 -21 23 -18 12 2 22 10 22 18 0 8 -10 16 -22 18
-18 3 -23 -2 -23 -18z"/>
<path d="M3647 1791 c-4 -17 -3 -21 5 -13 5 5 8 16 6 23 -3 8 -7 3 -11 -10z"/>
<path d="M936 1785 c-3 -9 -6 -22 -5 -28 0 -7 5 -1 10 12 5 13 8 26 5 28 -2 2
-6 -3 -10 -12z"/>
<path d="M1591 1761 c-1 -24 1 -42 3 -40 9 11 24 69 16 64 -4 -3 -11 1 -13 7
-3 7 -6 -7 -6 -31z"/>
<path d="M5671 1774 c0 -11 3 -14 6 -6 3 7 2 16 -1 19 -3 4 -6 -2 -5 -13z"/>
<path d="M2173 1725 c0 -33 2 -45 4 -27 2 18 2 45 0 60 -2 15 -4 0 -4 -33z"/>
<path d="M4212 1750 c0 -14 2 -19 5 -12 2 6 2 18 0 25 -3 6 -5 1 -5 -13z"/>
<path d="M856 1723 c-6 -14 -5 -15 5 -6 7 7 10 15 7 18 -3 3 -9 -2 -12 -12z"/>
<path d="M2213 1695 c0 -27 2 -38 4 -22 2 15 2 37 0 50 -2 12 -4 0 -4 -28z"/>
<path d="M3663 1675 c0 -67 1 -68 9 -27 6 26 6 54 0 70 -7 21 -9 12 -9 -43z"/>
<path d="M2090 1645 c0 -49 3 -86 6 -82 7 7 6 158 -1 165 -3 3 -5 -34 -5 -83z"/>
<path d="M3571 1704 c0 -11 3 -14 6 -6 3 7 2 16 -1 19 -3 4 -6 -2 -5 -13z"/>
<path d="M2130 1680 c-7 -31 -5 -129 3 -121 4 4 6 37 4 72 -2 35 -5 57 -7 49z"/>
<path d="M5660 1676 c0 -9 5 -16 10 -16 6 0 10 4 10 9 0 6 -4 13 -10 16 -5 3
-10 -1 -10 -9z"/>
<path d="M901 1664 c0 -11 3 -14 6 -6 3 7 2 16 -1 19 -3 4 -6 -2 -5 -13z"/>
<path d="M1462 1616 c18 -36 39 -66 46 -66 11 0 13 -8 8 -32 -3 -21 -2 -27 3
-18 15 26 24 63 14 57 -5 -3 -27 21 -48 54 -52 82 -62 84 -23 5z"/>
<path d="M2252 1660 c0 -14 2 -19 5 -12 2 6 2 18 0 25 -3 6 -5 1 -5 -13z"/>
<path d="M3581 1675 c-1 -15 65 -253 84 -300 21 -53 14 -26 -30 130 -42 149
-53 184 -54 170z"/>
<path d="M5166 1663 c-4 -8 -6 -28 -6 -44 0 -22 5 -29 20 -29 12 0 24 10 30
23 5 12 9 16 9 8 1 -8 4 -11 7 -8 4 4 1 13 -5 21 -7 8 -10 19 -7 24 3 6 -5 12
-19 14 -15 3 -26 0 -29 -9z"/>
<path d="M4222 1650 c0 -14 2 -19 5 -12 2 6 2 18 0 25 -3 6 -5 1 -5 -13z"/>
<path d="M5630 1666 c0 -2 8 -10 18 -17 15 -13 16 -12 3 4 -13 16 -21 21 -21
13z"/>
<path d="M5595 1650 c-3 -5 1 -10 9 -10 9 0 16 5 16 10 0 6 -4 10 -9 10 -6 0
-13 -4 -16 -10z"/>
<path d="M826 1635 c-3 -9 -6 -24 -5 -33 0 -9 5 -4 10 12 9 32 6 48 -5 21z"/>
<path d="M2161 1534 c-1 -43 1 -76 3 -73 7 7 10 138 4 145 -3 2 -6 -30 -7 -72z"/>
<path d="M2205 1599 c-4 -6 -5 -12 -2 -15 2 -3 7 2 10 11 7 17 1 20 -8 4z"/>
<path d="M2382 1575 c0 -16 2 -22 5 -12 2 9 2 23 0 30 -3 6 -5 -1 -5 -18z"/>
<path d="M5507 1583 c-10 -12 -13 -28 -10 -46 3 -15 0 -34 -7 -42 -11 -13 -7
-15 21 -17 67 -3 95 6 71 21 -23 14 -4 59 26 64 15 2 -2 5 -37 6 -55 1 -62 3
-51 16 17 21 7 19 -13 -2z m43 -37 c0 -8 -4 -17 -8 -20 -4 -2 -8 4 -8 15 0 10
4 19 8 19 4 0 8 -6 8 -14z"/>
<path d="M806 1564 c-8 -20 -8 -24 2 -24 4 0 8 9 9 20 2 24 -3 26 -11 4z"/>
<path d="M867 1560 c-3 -12 0 -20 8 -20 8 0 11 8 8 20 -3 11 -7 20 -8 20 -1 0
-5 -9 -8 -20z"/>
<path d="M1375 1560 c3 -5 11 -10 16 -10 6 0 7 5 4 10 -3 6 -11 10 -16 10 -6
0 -7 -4 -4 -10z"/>
<path d="M2203 1520 c0 -30 2 -43 4 -27 2 15 2 39 0 55 -2 15 -4 2 -4 -28z"/>
<path d="M5653 1557 c3 -9 2 -19 -3 -22 -6 -4 -10 -12 -10 -18 0 -7 5 -4 11 6
6 9 15 15 21 11 6 -4 8 1 6 11 -1 10 -9 20 -17 23 -10 3 -12 0 -8 -11z"/>
<path d="M3782 1521 c-6 -17 -9 -31 -6 -31 7 0 25 52 20 57 -2 2 -8 -10 -14
-26z"/>
<path d="M5220 1538 c18 -18 110 -71 110 -64 0 6 -81 60 -90 61 -3 0 -12 4
-20 9 -13 8 -13 7 0 -6z"/>
<path d="M1963 1450 c0 -47 2 -66 4 -42 2 23 2 61 0 85 -2 23 -4 4 -4 -43z"/>
<path d="M2374 1516 c-3 -8 -4 -23 -2 -33 3 -11 6 -6 9 15 6 34 2 42 -7 18z"/>
<path d="M2121 1484 c0 -11 3 -14 6 -6 3 7 2 16 -1 19 -3 4 -6 -2 -5 -13z"/>
<path d="M3701 1490 c0 -8 4 -24 9 -35 5 -13 9 -14 9 -5 0 8 -4 24 -9 35 -5
13 -9 14 -9 5z"/>
<path d="M5454 1476 c-3 -8 -4 -23 -2 -33 3 -11 6 -6 9 15 6 34 2 42 -7 18z"/>
<path d="M5646 1475 c-11 -8 -18 -15 -15 -16 37 -7 47 -4 46 13 -2 22 -6 22
-31 3z"/>
<path d="M2082 1450 c0 -14 2 -19 5 -12 2 6 2 18 0 25 -3 6 -5 1 -5 -13z"/>
<path d="M5083 1462 c-38 -4 -47 -32 -10 -32 20 0 22 -4 20 -42 -1 -24 1 -33
3 -20 3 13 10 19 16 16 8 -5 9 5 5 32 -3 21 -3 33 0 27 2 -7 18 -13 35 -13 30
0 31 -1 25 -40 -3 -23 -1 -38 4 -34 5 3 9 30 9 60 l0 54 -37 -2 c-21 -2 -53
-4 -70 -6z"/>
<path d="M5564 1459 c-4 -7 -3 -9 4 -5 5 3 13 0 15 -6 4 -9 6 -10 6 -1 1 17
-16 25 -25 12z"/>
<path d="M2201 1434 c0 -11 3 -14 6 -6 3 7 2 16 -1 19 -3 4 -6 -2 -5 -13z"/>
<path d="M3720 1425 c0 -5 5 -17 10 -25 5 -8 10 -10 10 -5 0 6 -5 17 -10 25
-5 8 -10 11 -10 5z"/>
<path d="M5550 1416 c0 -9 5 -16 10 -16 6 0 10 4 10 9 0 6 -4 13 -10 16 -5 3
-10 -1 -10 -9z"/>
<path d="M2081 1404 c0 -11 3 -14 6 -6 3 7 2 16 -1 19 -3 4 -6 -2 -5 -13z"/>
<path d="M5610 1399 c0 -24 23 -21 28 4 2 10 -3 17 -12 17 -10 0 -16 -9 -16
-21z"/>
<path d="M5442 1385 c0 -16 2 -22 5 -12 2 9 2 23 0 30 -3 6 -5 -1 -5 -18z"/>
<path d="M1526 1339 c-9 -29 -14 -54 -12 -56 2 -2 12 19 21 47 9 28 15 53 13
56 -3 2 -12 -19 -22 -47z"/>
<path d="M5556 1381 c-3 -5 1 -11 9 -15 9 -3 15 0 15 9 0 16 -16 20 -24 6z"/>
<path d="M1467 1373 c-7 -12 -20 -79 -14 -73 6 6 27 80 22 80 -2 0 -6 -3 -8
-7z"/>
<path d="M3740 1377 c0 -34 107 -167 134 -167 6 0 -8 17 -32 36 -24 20 -56 60
-72 88 -17 28 -30 47 -30 43z"/>
<path d="M5603 1352 c-3 -7 -3 -16 1 -19 3 -4 6 1 6 11 0 9 4 15 8 12 4 -2 14
-1 22 4 11 7 9 9 -9 7 -13 -1 -26 -7 -28 -15z"/>
<path d="M5559 1328 c4 -28 6 -29 9 -9 2 13 0 27 -5 32 -6 6 -7 -3 -4 -23z"/>
<path d="M5658 1329 c-10 -11 -13 -21 -8 -24 6 -4 7 -13 1 -22 -6 -11 -4 -21
6 -31 21 -21 28 -7 16 32 -8 24 -7 38 0 45 6 6 9 12 6 14 -2 2 -12 -4 -21 -14z"/>
<path d="M3683 1316 c3 -8 11 -33 17 -55 16 -61 46 -86 127 -110 74 -22 116
-27 73 -9 -14 5 -52 17 -84 24 -33 8 -65 19 -72 25 -7 6 -22 39 -34 75 -12 35
-24 64 -27 64 -3 0 -3 -6 0 -14z"/>
<path d="M1953 1260 c0 -36 2 -50 4 -32 2 17 2 47 0 65 -2 17 -4 3 -4 -33z"/>
<path d="M5505 1310 c3 -5 11 -10 16 -10 6 0 7 5 4 10 -3 6 -11 10 -16 10 -6
0 -7 -4 -4 -10z"/>
<path d="M5590 1288 c0 -14 -3 -34 -6 -43 -4 -10 -2 -15 7 -13 8 2 15 -7 17
-19 2 -13 -1 -23 -7 -23 -6 0 -11 8 -12 18 0 14 -2 14 -9 -3 -5 -11 -9 -31 -9
-44 l-1 -23 19 23 c11 13 22 21 26 18 3 -4 0 -13 -7 -19 -15 -14 -12 -110 3
-110 5 0 9 -7 9 -15 0 -16 16 -20 24 -6 3 5 -1 14 -9 21 -20 17 -19 49 1 57
15 6 15 7 0 19 -9 6 -16 23 -15 35 5 56 -2 117 -16 135 -14 18 -14 18 -15 -8z"/>
<path d="M5282 1270 c0 -14 2 -19 5 -12 2 6 2 18 0 25 -3 6 -5 1 -5 -13z"/>
<path d="M5460 1286 c0 -2 7 -7 16 -10 8 -3 12 -2 9 4 -6 10 -25 14 -25 6z"/>
<path d="M1433 1265 c-3 -9 -3 -18 -1 -21 3 -3 8 4 11 16 6 23 -1 27 -10 5z"/>
<path d="M3600 1275 c0 -5 5 -17 10 -25 5 -8 10 -10 10 -5 0 6 -5 17 -10 25
-5 8 -10 11 -10 5z"/>
<path d="M1466 1161 c-40 -122 -40 -121 -26 -121 6 0 10 8 10 18 0 10 13 60
30 112 16 52 27 96 25 98 -2 2 -19 -46 -39 -107z"/>
<path d="M5321 1254 c0 -11 3 -14 6 -6 3 7 2 16 -1 19 -3 4 -6 -2 -5 -13z"/>
<path d="M5533 1263 c-16 -6 -5 -33 13 -33 8 0 14 6 14 14 0 18 -11 25 -27 19z"/>
<path d="M2070 1235 c0 -14 2 -25 4 -25 2 0 6 11 8 25 3 14 1 25 -3 25 -5 0
-9 -11 -9 -25z"/>
<path d="M2111 1244 c0 -11 3 -14 6 -6 3 7 2 16 -1 19 -3 4 -6 -2 -5 -13z"/>
<path d="M5361 1244 c0 -11 3 -14 6 -6 3 7 2 16 -1 19 -3 4 -6 -2 -5 -13z"/>
<path d="M5473 1233 c-7 -3 -13 -13 -13 -24 0 -10 -5 -19 -10 -19 -7 0 -6 -5
1 -13 7 -7 25 -11 42 -9 21 3 34 -1 42 -12 11 -15 13 -15 18 4 3 13 0 23 -8
27 -8 2 -17 14 -21 25 -3 11 -8 17 -11 14 -4 -3 -11 -2 -17 3 -6 4 -17 6 -23
4z"/>
<path d="M570 1226 c0 -2 7 -7 16 -10 8 -3 12 -2 9 4 -6 10 -25 14 -25 6z"/>
<path d="M3626 1217 c3 -10 9 -15 12 -12 3 3 0 11 -7 18 -10 9 -11 8 -5 -6z"/>
<path d="M90 1209 c0 -5 11 -9 25 -9 14 0 25 2 25 4 0 2 -11 6 -25 8 -14 3
-25 1 -25 -3z"/>
<path d="M248 1209 c14 -15 62 -22 62 -9 0 6 -4 8 -10 5 -5 -3 -10 -2 -10 2 0
5 -11 9 -25 9 -14 0 -22 -3 -17 -7z"/>
<path d="M320 1205 c0 -14 48 -15 53 -1 3 7 -6 12 -24 11 -16 0 -29 -4 -29
-10z"/>
<path d="M470 1216 c0 -2 7 -6 15 -10 8 -3 15 -1 15 4 0 6 -7 10 -15 10 -8 0
-15 -2 -15 -4z"/>
<path d="M5660 1195 c0 -14 4 -25 8 -25 4 0 9 11 10 25 1 14 -3 25 -8 25 -6 0
-10 -11 -10 -25z"/>
<path d="M0 1193 c0 -12 3 -14 8 -7 4 7 16 14 27 17 15 4 14 5 -7 6 -21 1 -28
-4 -28 -16z"/>
<path d="M5170 1207 c0 -8 105 -77 116 -77 8 0 -19 19 -88 65 -16 9 -28 15
-28 12z"/>
<path d="M530 1196 c0 -2 7 -9 15 -16 9 -7 15 -8 15 -2 0 5 -7 12 -15 16 -8 3
-15 4 -15 2z"/>
<path d="M480 1166 c0 -14 5 -26 10 -26 6 0 10 9 10 19 0 11 -4 23 -10 26 -6
4 -10 -5 -10 -19z"/>
<path d="M3650 1164 c9 -22 8 -25 -5 -20 -9 3 -13 2 -10 -4 3 -6 15 -10 25
-10 17 0 17 2 4 30 -19 37 -27 39 -14 4z"/>
<path d="M4900 1140 c-18 -12 -2 -12 25 0 13 6 15 9 5 9 -8 0 -22 -4 -30 -9z"/>
<path d="M5300 1122 c0 -5 11 -14 25 -20 14 -6 25 -10 25 -8 0 2 -11 11 -25
20 -14 9 -25 13 -25 8z"/>
<path d="M600 1115 c0 -5 5 -17 10 -25 5 -8 10 -10 10 -5 0 6 -5 17 -10 25 -5
8 -10 11 -10 5z"/>
<path d="M5450 1084 c0 -9 6 -14 13 -11 6 2 18 -3 25 -12 11 -14 12 -14 10 3
-4 24 -48 43 -48 20z"/>
<path d="M5554 1036 c-3 -13 -2 -35 2 -48 5 -13 9 -30 9 -38 0 -9 8 -14 18
-12 9 2 16 -2 15 -9 -2 -6 3 -14 10 -16 10 -4 10 1 1 21 -7 14 -16 23 -20 20
-5 -3 -8 5 -6 18 1 14 -3 22 -10 21 -7 -2 -13 4 -13 13 0 8 4 13 9 9 17 -10
23 15 7 30 -14 14 -16 13 -22 -9z"/>
<path d="M2005 1030 c-10 -11 -29 -20 -42 -20 -13 0 -22 -4 -19 -8 10 -16 61
0 79 24 22 29 8 32 -18 4z"/>
<path d="M4810 1030 c-9 -6 -10 -10 -3 -10 6 0 15 5 18 10 8 12 4 12 -15 0z"/>
<path d="M5447 1026 c-7 -19 12 -25 40 -15 18 7 21 5 18 -11 -2 -11 1 -22 6
-26 6 -3 9 9 7 30 -2 40 -2 40 -29 26 -13 -7 -19 -7 -19 0 0 15 -17 12 -23 -4z"/>
<path d="M32 1020 c0 -8 4 -26 8 -40 6 -20 8 -21 8 -5 0 11 -3 29 -8 40 -5 12
-8 14 -8 5z"/>
<path d="M1360 843 c-35 -103 -67 -194 -73 -200 -7 -9 -5 -13 7 -13 9 0 16 8
16 20 0 38 84 250 100 251 10 0 11 2 3 6 -20 7 -15 23 6 23 25 0 47 -25 30
-36 -9 -5 -6 -10 10 -16 12 -4 19 -13 16 -18 -4 -6 4 -21 18 -34 13 -12 26
-29 29 -37 3 -8 8 -12 11 -9 3 3 -12 37 -35 75 -22 39 -44 81 -48 95 -6 16 -9
19 -9 8 -1 -10 -8 -18 -16 -18 -18 0 -18 7 -4 49 6 18 9 34 6 37 -3 3 -33 -79
-67 -183z"/>
<path d="M4760 1010 c-8 -5 -10 -10 -5 -10 6 0 17 5 25 10 8 5 11 10 5 10 -5
0 -17 -5 -25 -10z"/>
<path d="M5390 1012 c0 -4 27 -24 60 -45 72 -45 82 -26 10 21 -49 32 -70 39
-70 24z"/>
<path d="M5631 1011 c-11 -7 -9 -10 10 -13 14 -2 25 -11 27 -22 2 -11 0 -16
-6 -12 -6 3 -13 2 -16 -3 -4 -5 -2 -12 3 -15 5 -3 7 -16 3 -28 -3 -14 -1 -19
6 -14 8 4 10 2 6 -7 -3 -8 -1 -18 5 -21 6 -4 9 15 8 54 -2 64 -21 96 -46 81z"/>
<path d="M650 977 c-1 -22 31 -78 41 -71 7 4 7 9 2 13 -6 3 -17 20 -26 36 -9
17 -16 26 -17 22z"/>
<path d="M2476 954 c-8 -21 -8 -39 1 -30 8 7 15 46 9 46 -2 0 -7 -7 -10 -16z"/>
<path d="M1322 933 c-33 -88 -44 -124 -40 -128 3 -3 17 29 31 72 25 75 31 114
9 56z"/>
<path d="M4700 935 c-14 -8 -20 -14 -15 -14 6 0 21 6 35 14 14 8 21 14 15 14
-5 0 -21 -6 -35 -14z"/>
<path d="M1246 928 c3 -4 9 -8 15 -8 5 0 9 4 9 8 0 5 -7 9 -15 9 -8 0 -12 -4
-9 -9z"/>
<path d="M910 920 c0 -5 5 -10 11 -10 5 0 7 5 4 10 -3 6 -8 10 -11 10 -2 0 -4
-4 -4 -10z"/>
<path d="M948 923 c7 -3 16 -2 19 1 4 3 -2 6 -13 5 -11 0 -14 -3 -6 -6z"/>
<path d="M1000 911 c-12 -13 -13 -21 -4 -40 7 -14 14 -19 19 -12 3 6 11 9 16
5 5 -3 6 -11 2 -17 -4 -7 1 -6 11 2 15 13 16 15 2 23 -9 5 -21 6 -26 3 -6 -3
-10 3 -10 14 0 10 5 21 12 23 7 3 8 7 3 10 -6 2 -17 -2 -25 -11z"/>
<path d="M1045 920 c3 -5 10 -10 16 -10 5 0 9 5 9 10 0 6 -7 10 -16 10 -8 0
-12 -4 -9 -10z"/>
<path d="M1080 920 c0 -5 5 -10 10 -10 6 0 10 5 10 10 0 6 -4 10 -10 10 -5 0
-10 -4 -10 -10z"/>
<path d="M1146 915 c-3 -8 -3 -15 0 -15 3 0 12 7 20 15 13 13 13 15 1 15 -8 0
-17 -7 -21 -15z"/>
<path d="M2024 898 c-17 -18 -37 -42 -45 -53 -13 -18 -13 -19 4 -6 9 7 17 10
17 5 1 -5 5 -29 10 -54 7 -37 5 -53 -12 -88 -27 -56 -44 -42 -53 43 l-7 63
-35 -21 c-38 -22 -73 -71 -73 -102 0 -12 8 -3 23 25 12 24 33 50 46 59 l23 15
-8 -44 c-9 -52 -9 -51 1 -190 8 -104 7 -106 -18 -135 -45 -52 -55 -24 -58 165
l-1 65 -8 -57 c-5 -32 -14 -67 -20 -77 -5 -11 -10 -30 -10 -43 0 -42 -39 -57
-62 -24 -4 6 -8 1 -8 -11 0 -14 6 -23 15 -23 8 0 15 -6 15 -12 0 -7 14 2 30
20 20 22 30 43 30 65 0 24 3 28 10 17 6 -8 7 -34 4 -57 -6 -39 -4 -43 20 -54
22 -10 29 -9 46 6 32 29 40 78 29 169 -5 44 -11 86 -13 92 -2 6 -1 26 3 45 l8
34 8 -38 c15 -75 59 -63 88 24 12 36 16 39 21 22 4 -11 2 -32 -4 -47 -14 -37
-13 -71 3 -84 9 -8 12 -2 14 26 0 21 3 48 6 62 2 14 5 28 6 32 0 5 18 27 38
49 29 32 37 48 34 71 -2 20 1 28 8 24 6 -4 11 -15 12 -24 0 -11 2 -12 6 -4 3
7 -2 24 -11 37 -12 18 -25 25 -49 25 -18 0 -38 5 -43 10 -7 7 -20 -1 -40 -22z
m108 -43 c-3 -30 -12 -48 -38 -71 -38 -35 -41 -33 -74 32 -18 38 -18 39 2 60
15 17 30 22 66 20 l47 -1 -3 -40z"/>
<path d="M5537 923 c-9 -9 -9 -43 1 -44 44 -4 68 -11 98 -29 19 -12 38 -20 41
-16 8 7 12 4 -64 54 -67 45 -66 45 -76 35z"/>
<path d="M753 909 c14 -8 22 -8 30 0 8 8 3 11 -18 11 -26 -1 -28 -2 -12 -11z"/>
<path d="M836 904 c-4 -10 -1 -14 6 -12 15 5 23 28 10 28 -5 0 -13 -7 -16 -16z"/>
<path d="M885 910 c-3 -5 -1 -10 4 -10 6 0 11 5 11 10 0 6 -2 10 -4 10 -3 0
-8 -4 -11 -10z"/>
<path d="M3863 903 c9 -2 25 -2 35 0 9 3 1 5 -18 5 -19 0 -27 -2 -17 -5z"/>
<path d="M3920 902 c0 -4 17 -6 38 -4 64 6 69 10 15 11 -29 0 -53 -3 -53 -7z"/>
<path d="M4961 906 c2 -2 46 -6 97 -8 54 -3 88 -2 80 3 -12 8 -186 13 -177 5z"/>
<path d="M1094 892 c4 -7 2 -21 -5 -30 -12 -15 -11 -15 6 0 16 15 17 20 6 30
-11 11 -13 10 -7 0z"/>
<path d="M2260 800 c-51 -55 -100 -110 -108 -121 -13 -19 -15 -19 -28 -2 -13
17 -14 16 -8 -9 3 -14 0 -36 -6 -49 -11 -19 -10 -21 5 -16 9 4 19 7 21 7 2 0
4 7 4 16 0 9 39 61 88 116 162 185 178 213 32 58z"/>
<path d="M2431 829 c-12 -35 -17 -59 -12 -54 11 12 42 107 37 112 -2 2 -13
-24 -25 -58z"/>
<path d="M5011 866 c2 -1 19 -8 38 -14 29 -10 32 -10 21 3 -7 8 -24 15 -38 15
-14 0 -23 -2 -21 -4z"/>
<path d="M4465 850 c-3 -5 -1 -10 4 -10 6 0 11 5 11 10 0 6 -2 10 -4 10 -3 0
-8 -4 -11 -10z"/>
<path d="M902 840 c2 -8 -2 -14 -8 -13 -17 3 -12 -25 5 -30 12 -3 16 3 16 19
-1 13 -5 27 -9 31 -4 5 -6 1 -4 -7z"/>
<path d="M5314 841 c-2 -2 -1 -8 2 -12 7 -13 134 -11 134 1 0 6 -6 11 -12 11
-34 4 -120 4 -124 0z"/>
<path d="M5275 800 c13 -66 27 -295 21 -352 l-7 -64 -122 -120 c-67 -66 -142
-136 -167 -156 -81 -65 -123 -108 -107 -108 9 0 22 7 30 15 13 13 16 13 27 0
7 -8 20 -15 29 -15 12 0 10 5 -9 20 l-25 20 40 35 c22 20 68 64 102 98 74 74
50 80 243 -71 72 -57 134 -102 136 -99 3 3 -8 15 -25 28 -23 17 -28 25 -19 32
9 6 8 7 -3 4 -11 -4 -54 24 -119 76 l-103 82 33 6 c56 12 61 30 6 23 -39 -6
-48 -4 -44 7 2 7 15 16 29 20 13 4 18 7 11 8 -16 1 26 60 43 60 6 1 17 16 24
33 21 48 17 280 -6 362 -4 14 -1 18 11 13 10 -4 16 -1 16 8 0 8 -7 15 -15 15
-9 0 -20 10 -26 23 -9 21 -9 21 -4 -3z"/>
<path d="M1769 793 c-13 -16 -12 -17 4 -4 16 13 21 21 13 21 -2 0 -10 -8 -17
-17z"/>
<path d="M5135 800 c-18 -8 -17 -9 8 -9 15 -1 27 4 27 9 0 12 -8 12 -35 0z"/>
<path d="M1210 791 c0 -5 -10 -12 -22 -14 -14 -3 -7 -5 16 -6 33 -1 37 1 26
14 -14 17 -20 19 -20 6z"/>
<path d="M4615 789 c-82 -5 -163 -13 -180 -19 -28 -9 -28 -9 10 -5 77 9 553
27 592 23 21 -3 47 -1 58 3 26 10 -286 8 -480 -2z"/>
<path d="M1064 779 c-3 -5 6 -9 20 -9 31 0 34 6 6 13 -11 3 -23 1 -26 -4z"/>
<path d="M1658 783 c6 -2 18 -2 25 0 6 3 1 5 -13 5 -14 0 -19 -2 -12 -5z"/>
<path d="M5511 774 c0 -11 3 -14 6 -6 3 7 2 16 -1 19 -3 4 -6 -2 -5 -13z"/>
<path d="M881 754 c0 -11 3 -14 6 -6 3 7 2 16 -1 19 -3 4 -6 -2 -5 -13z"/>
<path d="M843 742 c-8 -5 -9 -13 -3 -22 8 -13 10 -13 10 2 0 9 6 19 13 21 6 3
8 6 2 6 -5 0 -15 -3 -22 -7z"/>
<path d="M942 725 c0 -16 2 -22 5 -12 2 9 2 23 0 30 -3 6 -5 -1 -5 -18z"/>
<path d="M2296 708 c-16 -39 -28 -88 -22 -88 2 0 13 27 24 60 22 63 20 82 -2
28z"/>
<path d="M2370 668 c-33 -92 -34 -98 -7 -45 22 43 42 107 33 107 -2 0 -14 -28
-26 -62z"/>
<path d="M821 694 c0 -11 3 -14 6 -6 3 7 2 16 -1 19 -3 4 -6 -2 -5 -13z"/>
<path d="M102 680 c0 -14 2 -19 5 -12 2 6 2 18 0 25 -3 6 -5 1 -5 -13z"/>
<path d="M1230 656 c0 -8 4 -17 9 -20 5 -4 7 3 4 14 -6 23 -13 26 -13 6z"/>
<path d="M5490 648 c0 -10 -9 -14 -27 -13 -19 2 -20 1 -6 -2 20 -4 22 -8 16
-49 -4 -29 -2 -44 5 -44 6 0 9 6 6 14 -3 8 0 33 6 56 6 23 9 45 6 48 -3 3 -6
-1 -6 -10z"/>
<path d="M2421 624 c0 -11 3 -14 6 -6 3 7 2 16 -1 19 -3 4 -6 -2 -5 -13z"/>
<path d="M943 555 c0 -44 2 -61 4 -37 2 23 2 59 0 80 -2 20 -4 1 -4 -43z"/>
<path d="M2503 555 c0 -22 2 -30 4 -17 2 12 2 30 0 40 -3 9 -5 -1 -4 -23z"/>
<path d="M880 560 c0 -5 5 -10 10 -10 6 0 10 5 10 10 0 6 -4 10 -10 10 -5 0
-10 -4 -10 -10z"/>
<path d="M2330 567 c0 -1 -4 -18 -10 -36 -5 -20 -6 -31 -1 -25 12 11 25 64 17
64 -3 0 -6 -1 -6 -3z"/>
<path d="M5641 544 c0 -11 3 -14 6 -6 3 7 2 16 -1 19 -3 4 -6 -2 -5 -13z"/>
<path d="M4368 543 c17 -2 47 -2 65 0 17 2 3 4 -33 4 -36 0 -50 -2 -32 -4z"/>
<path d="M4843 495 c0 -22 2 -30 4 -17 2 12 2 30 0 40 -3 9 -5 -1 -4 -23z"/>
<path d="M2371 504 c0 -11 3 -14 6 -6 3 7 2 16 -1 19 -3 4 -6 -2 -5 -13z"/>
<path d="M5350 514 c0 -4 5 -24 12 -45 8 -29 17 -39 32 -39 20 0 20 0 -2 16
-25 17 -25 42 -2 61 13 10 11 12 -12 13 -16 0 -28 -3 -28 -6z"/>
<path d="M4258 503 c12 -2 32 -2 45 0 12 2 2 4 -23 4 -25 0 -35 -2 -22 -4z"/>
<path d="M5470 503 c0 -5 5 -15 10 -23 8 -12 10 -11 10 8 0 12 -4 22 -10 22
-5 0 -10 -3 -10 -7z"/>
<path d="M5533 490 c22 -32 22 -49 -2 -43 -11 3 -28 0 -38 -6 -14 -8 -7 -10
35 -11 l53 0 -18 31 c-10 17 -25 36 -33 42 -9 8 -9 4 3 -13z"/>
<path d="M5640 492 c0 -9 9 -23 20 -30 17 -10 20 -10 20 6 0 9 -9 23 -20 30
-17 10 -20 10 -20 -6z"/>
<path d="M5330 465 c0 -8 4 -15 10 -15 5 0 7 7 4 15 -4 8 -8 15 -10 15 -2 0
-4 -7 -4 -15z"/>
<path d="M938 463 c-2 -5 -1 -73 2 -153 l6 -145 2 153 c2 137 0 168 -10 145z"/>
<path d="M2053 400 c0 -36 2 -50 4 -32 2 17 2 47 0 65 -2 17 -4 3 -4 -33z"/>
<path d="M4802 435 c0 -16 2 -22 5 -12 2 9 2 23 0 30 -3 6 -5 -1 -5 -18z"/>
<path d="M4832 420 c0 -14 2 -19 5 -12 2 6 2 18 0 25 -3 6 -5 1 -5 -13z"/>
<path d="M5595 420 c3 -5 8 -10 11 -10 2 0 4 5 4 10 0 6 -5 10 -11 10 -5 0 -7
-4 -4 -10z"/>
<path d="M2493 385 c0 -22 2 -30 4 -17 2 12 2 30 0 40 -3 9 -5 -1 -4 -23z"/>
<path d="M2176 375 c-9 -26 -7 -32 5 -12 6 10 9 21 6 23 -2 3 -7 -2 -11 -11z"/>
<path d="M4821 374 c0 -11 3 -14 6 -6 3 7 2 16 -1 19 -3 4 -6 -2 -5 -13z"/>
<path d="M5314 365 c-3 -14 -12 -25 -19 -25 -8 0 -11 -8 -8 -20 3 -11 9 -17
14 -14 5 3 9 0 9 -6 0 -6 21 -20 47 -31 52 -22 214 -31 246 -12 13 7 -7 8 -67
5 -105 -6 -146 2 -179 32 -14 13 -29 21 -33 17 -3 -3 -3 13 1 37 7 45 -1 58
-11 17z"/>
<path d="M5490 339 c-37 -5 -32 -6 33 -7 42 -1 77 2 77 7 0 10 -35 10 -110 0z"/>
<path d="M2146 295 c-9 -26 -7 -32 5 -12 6 10 9 21 6 23 -2 3 -7 -2 -11 -11z"/>
<path d="M2226 285 c-9 -26 -7 -32 5 -12 6 10 9 21 6 23 -2 3 -7 -2 -11 -11z"/>
<path d="M5434 289 c-3 -5 3 -9 13 -10 10 0 26 -2 36 -4 9 -2 17 2 17 8 0 14
-58 19 -66 6z"/>
<path d="M5560 290 c0 -5 9 -10 19 -10 11 0 23 5 26 10 4 6 -5 10 -19 10 -14
0 -26 -4 -26 -10z"/>
<path d="M3868 283 c7 -3 16 -2 19 1 4 3 -2 6 -13 5 -11 0 -14 -3 -6 -6z"/>
<path d="M4561 264 c0 -11 3 -14 6 -6 3 7 2 16 -1 19 -3 4 -6 -2 -5 -13z"/>
<path d="M3940 245 c40 -48 43 -51 32 -30 -6 11 -21 29 -34 40 -22 19 -22 19
2 -10z"/>
<path d="M4553 205 c0 -22 2 -30 4 -17 2 12 2 30 0 40 -3 9 -5 -1 -4 -23z"/>
<path d="M3685 223 c-11 -3 -24 -10 -30 -15 -7 -8 -4 -9 8 -4 10 3 32 6 48 6
18 0 28 4 24 10 -6 10 -16 11 -50 3z"/>
<path d="M3789 220 c19 -5 39 -16 45 -27 26 -44 76 -160 76 -175 0 -10 5 -18
10 -18 14 0 13 3 -16 78 -49 120 -76 153 -126 151 -17 -1 -14 -3 11 -9z"/>
<path d="M2043 150 c0 -41 2 -58 4 -37 2 20 2 54 0 75 -2 20 -4 3 -4 -38z"/>
<path d="M2191 189 c-6 -18 -9 -34 -7 -36 2 -2 9 10 15 28 6 18 9 34 7 36 -2
2 -9 -10 -15 -28z"/>
<path d="M4471 194 c0 -11 3 -14 6 -6 3 7 2 16 -1 19 -3 4 -6 -2 -5 -13z"/>
<path d="M4512 190 c0 -14 2 -19 5 -12 2 6 2 18 0 25 -3 6 -5 1 -5 -13z"/>
<path d="M2641 184 c0 -11 3 -14 6 -6 3 7 2 16 -1 19 -3 4 -6 -2 -5 -13z"/>
<path d="M2562 160 c0 -14 2 -19 5 -12 2 6 2 18 0 25 -3 6 -5 1 -5 -13z"/>
<path d="M4841 158 c0 -9 -4 -25 -7 -35 -5 -17 -5 -17 6 0 6 10 9 25 7 35 -4
15 -5 15 -6 0z"/>
<path d="M3991 144 c0 -11 3 -14 6 -6 3 7 2 16 -1 19 -3 4 -6 -2 -5 -13z"/>
<path d="M4461 144 c0 -11 3 -14 6 -6 3 7 2 16 -1 19 -3 4 -6 -2 -5 -13z"/>
<path d="M4535 95 c-4 -37 -5 -69 -2 -71 2 -3 8 25 12 61 4 37 5 69 2 71 -2 3
-8 -25 -12 -61z"/>
<path d="M2166 125 c-9 -26 -7 -32 5 -12 6 10 9 21 6 23 -2 3 -7 -2 -11 -11z"/>
<path d="M4501 128 c0 -9 -4 -25 -7 -35 -5 -17 -5 -17 6 0 6 10 9 25 7 35 -4
15 -5 15 -6 0z"/>
<path d="M5483 73 c20 -2 54 -2 75 0 20 2 3 4 -38 4 -41 0 -58 -2 -37 -4z"/>
<path d="M2132 31 c-6 -17 -9 -31 -6 -31 7 0 25 52 20 57 -2 2 -8 -10 -14 -26z"/>
<path d="M2043 33 c-15 -5 -18 -33 -4 -33 5 0 11 9 14 20 3 11 4 20 4 19 -1 0
-8 -3 -14 -6z"/>
<path d="M2985 10 c3 -5 14 -10 23 -10 15 0 15 2 2 10 -20 13 -33 13 -25 0z"/>
</g>
</svg>
